<?xml version="1.0" encoding="utf-8"?>
<!-- Generator: Adobe Illustrator 22.1.0, SVG Export Plug-In . SVG Version: 6.00 Build 0)  -->
<svg version="1.1" id="Layer_2" xmlns="http://www.w3.org/2000/svg" xmlns:xlink="http://www.w3.org/1999/xlink" x="0px" y="0px"
	 viewBox="0 0 242.8 318.1" style="enable-background:new 0 0 242.8 318.1;" xml:space="preserve">
<style type="text/css">
	.st0{fill-rule:evenodd;clip-rule:evenodd;fill:#FFFFFF;}
	.st1{fill:#FFFFFF;}
</style>
<g>
	<path class="st0" d="M67.1,99.5l30.1,58.2c0,0,48.9-118.3,126.1-157.8c-1.9,28.2-9.4,52.6,3.8,82.6c-33.9,7.5-103.5,92-126.1,133.4
		C69,176.6,31.3,146.5,5,137.1L67.1,99.5L67.1,99.5z"/>
	<path class="st1" d="M44.7,223.5c-0.2,0-0.3,0-0.3-0.3c0-0.2,0.2-0.7,0.2-1c0-1.3-1-1.8-2.6-1.8c-3.5,0-7.3,3.6-10.1,6.1
		c-0.8,2.1-4.1,12-4.1,16.8c0,1.8,0.3,4,2.7,4c2.4,0,4.6-3.7,5-3.7c0.1,0,0.2,0,0.2,0.1c0,0.7-1.9,2.9-3.7,4
		c-0.7,0.4-1.5,0.4-2.3,0.4c-3.1,0-4.5-2.3-4.5-5c0-4.4,1.5-8.6,2.7-12.7l-0.1-0.1c-2.2,1.9-7.1,7.3-8.8,9.6
		c-3,4.1-7.2,8.2-13.2,8.2c-3.9,0-5.9-3.7-5.9-4.5c0-0.2,0-0.4,0.1-0.4c0.6,0,1.6,4,6,4c4.5,0,10.1-5.5,12.8-12.1
		c1.2-3.1,4.5-9.5,8.4-14l-0.1-0.1c-1.8,0.6-3.7,1.3-5.6,1.3c-1.7,0-3.2-0.2-4.5-0.4c-1.3-0.2-2.4-0.4-3.4-0.4
		c-3.4,0-4.6,1.5-4.6,4.2c0,1.7,0.7,2.4,0.7,2.7c0,0.1,0,0.2-0.3,0.2c-0.5,0-1.2-1.9-1.2-3.1c0-3.7,3.5-6.2,7-6.2
		c1.3,0,2.8,0.1,4.3,0.5c1.5,0.3,3,0.7,4.4,0.7c1.6,0,3.6-0.2,4.9-1.2l0.1,0.1c-1.7,2.4-6.5,12.2-7.4,15.9l0.3-0.1
		c6.8-7.2,15.2-15.9,19.8-15.9c2.7,0,3.6,0.6,3.6,2.5C45.3,222.8,45,223.5,44.7,223.5L44.7,223.5z M51.3,241.2
		c-1.9,1.3-4.1,1.8-6.1,1.8c-0.6,0-1.4,0-2-0.2c0,2.3,2.3,4,4.1,4c2,0,3.5-0.8,4.2-1.3c0.4-0.3,0.7-0.6,1-0.6c0.1,0,0.2,0.1,0.2,0.3
		c0,0.7-2.4,2-2.8,2.2c-1.5,0.8-2.6,0.8-4.2,0.8c-3.1,0-5.7-2-5.7-5.2c0-5.2,7.4-8.7,12-8.7c1.2,0,2.4,0.6,2.4,2.1
		C54.5,237.7,53,240,51.3,241.2L51.3,241.2z M49.7,235.6c-2.7,0-6.6,3.4-6.6,6.3c0.5,0,1,0.2,1.6,0.2c1.9,0,3.4-0.5,4.6-1.5
		c1.3-1.1,2.5-2.5,2.5-3.7C51.8,235.8,50.7,235.6,49.7,235.6L49.7,235.6z M69.8,230.3c-0.9,0-1.6-0.8-1.6-1.6s0.7-1.6,1.6-1.6
		c0.9,0,1.6,0.8,1.6,1.6S70.7,230.3,69.8,230.3L69.8,230.3z M62.1,246.1c0,0.6,0.4,1.2,1,1.2c0.3,0,0.5-0.2,0.8-0.2
		c0.1,0,0.3,0,0.3,0.2c0,0.9-1.4,0.9-2.1,0.9c-0.8,0-1.6-0.2-2.4-0.2c-0.7,0-1.5,0.2-2.3,0.2c-0.9,0-1.1,0-1.1-0.3
		c0-0.3,0.5-0.5,1.3-0.5c1.3,0,3.7-6,6-9.6c-0.8,0.1-2,0.6-2.5,0.6c-0.1,0-0.2,0-0.2-0.2c0-0.2,0.2-0.4,0.4-0.5
		c1.1-0.4,5.7-2.5,6-2.5c0.3,0,0.4,0.2,0.4,0.4c0,0.2-0.1,0.4-0.3,0.6C64.2,242.1,62.1,245.4,62.1,246.1L62.1,246.1z M82.7,246.3
		c0,0.4,0.6,0.6,1.4,0.6c0.7,0,1.2-0.3,1.4-0.3c0.2,0,0.4,0,0.4,0.2c0,0.6-1,1.5-2.3,1.5c-0.8,0-1.5-0.2-2.1-0.2
		c-0.4,0-0.7,0.2-1,0.2c-0.3,0-0.5-0.1-0.5-0.3c0-0.4,0.6-1,1.1-1.5c1.4-1.4,4.1-5.5,4.1-8.2c0-1.4-0.5-2.2-1.9-2.2
		c-3.4,0-5.9,4.5-7.3,7.1c-0.5,0.9-1.6,2.6-1.6,3.6c0,0.4,0.2,0.5,0.5,0.5c0.6,0,1-0.8,1.3-0.8c0.2,0,0.3,0.2,0.3,0.4
		c0,0.6-1.8,1.3-2.2,1.3c-1.2,0-1.9-0.2-2.3-0.2c-0.6,0-1.6,0.2-2.4,0.2c-0.3,0-0.7,0-0.7-0.2c0-0.2,0.4-0.7,0.9-0.7
		c1,0,1.6-0.7,2-1.5c1.6-2.9,3-5.8,4.5-8.7c-0.8,0.1-1.9,0.6-2.5,0.6c-0.2,0-0.2-0.1-0.2-0.2c0-0.4,2.4-1.1,4.9-2.1
		c0.4-0.1,0.7-0.3,1-0.3c0.2,0,0.3,0.2,0.3,0.3c0,0.4-0.5,1.1-0.6,1.7c1.1-0.9,3.8-2.3,5.2-2.3c2,0,3.5,1.1,3.5,3.2
		C87.8,241.9,82.7,245.8,82.7,246.3L82.7,246.3z M103.8,241.2c-1.9,1.3-4.1,1.8-6.1,1.8c-0.6,0-1.4,0-2-0.2c0,2.3,2.3,4,4.1,4
		c2,0,3.5-0.8,4.2-1.3c0.4-0.3,0.7-0.6,1-0.6c0.1,0,0.2,0.1,0.2,0.3c0,0.7-2.4,2-2.8,2.2c-1.5,0.8-2.6,0.8-4.2,0.8
		c-3.1,0-5.7-2-5.7-5.2c0-5.2,7.4-8.7,12-8.7c1.2,0,2.4,0.6,2.4,2.1C107,237.7,105.5,240,103.8,241.2L103.8,241.2z M102.2,235.6
		c-2.7,0-6.6,3.4-6.6,6.3c0.5,0,1,0.2,1.6,0.2c1.9,0,3.4-0.5,4.6-1.5c1.3-1.1,2.5-2.5,2.5-3.7C104.3,235.8,103.2,235.6,102.2,235.6
		L102.2,235.6z M151.1,222.8c-5.5,5.5-5.9,12.7-10.8,19.8c-2.9,4.2-6.5,5.6-11.5,5.6c-3.2,0-6.3-1.3-6.3-4.6c0-0.2,0-0.7,0.3-0.7
		c0.2,0,0.5,0,0.5,0.5c0,3.2,2.7,4,5.9,4c5.1,0,7.9-2.9,9.9-7.2c4-8.7,6.3-13.8,11.2-17.8l-0.2-0.1c-1.3,0.1-2.8,0.6-5.7,0.6
		c-3.4,0-6.8-0.6-10.2-0.6c-3.6,0-8.6,1.2-8.6,5.7c0,2.1,1.2,3.2,1.2,3.6c0,0.1,0,0.2-0.2,0.2c-0.8,0-1.9-2.4-1.9-4.3
		c0-5.2,5.7-7.5,10.1-7.5c2.1,0,4.3,0.5,6.4,0.9c2.2,0.4,4.5,1,6.7,1c1.8,0,3.9-0.6,4.4-0.6c0.1,0,0.2,0,0.2,0.2
		C152.4,221.6,151.5,222.3,151.1,222.8L151.1,222.8z M159.1,230.3c-0.9,0-1.6-0.8-1.6-1.6s0.7-1.6,1.6-1.6c0.9,0,1.6,0.8,1.6,1.6
		S160,230.3,159.1,230.3L159.1,230.3z M151.4,246.1c0,0.6,0.4,1.2,1,1.2c0.3,0,0.5-0.2,0.8-0.2c0.1,0,0.3,0,0.3,0.2
		c0,0.9-1.4,0.9-2.1,0.9c-0.8,0-1.6-0.2-2.4-0.2c-0.7,0-1.5,0.2-2.3,0.2c-0.9,0-1.1,0-1.1-0.3c0-0.3,0.5-0.5,1.3-0.5
		c1.3,0,3.7-6,6-9.6c-0.8,0.1-2,0.6-2.5,0.6c-0.1,0-0.2,0-0.2-0.2c0-0.2,0.2-0.4,0.4-0.5c1.1-0.4,5.7-2.5,6-2.5
		c0.3,0,0.4,0.2,0.4,0.4c0,0.2-0.1,0.4-0.3,0.6C153.5,242.1,151.4,245.4,151.4,246.1L151.4,246.1z M172.9,239.5
		c-0.7,0-1.7-0.2-1.7-0.9c0-0.3,0.3-0.5,0.6-0.5c0.4,0,1.2-0.9,1.2-1.5c0-0.8-0.6-1-3-1c-3.3,0-6.6,3.4-6.6,6.6
		c0,2.2,1.4,4.6,3.8,4.6c3.5,0,5.8-3.8,6-3.8c0.1,0,0.3,0,0.3,0.2c0,0.6-0.5,1-2,2.5c-1.6,1.7-3,2.4-5.4,2.4c-3.2,0-5.5-2.2-5.5-5.4
		c0-4.7,4.3-8,8.8-8c1.8,0,2.7,0.4,3.7,0.4c0.7,0,1-0.4,1.4-0.4c0.7,0,0.8,1.2,0.8,1.9C175.5,238,174.5,239.5,172.9,239.5
		L172.9,239.5z M201.6,223.3c-0.3,0-0.2-0.5-0.7-1.2c-0.5-0.4-1.1-0.9-2.2-0.9c-3.8,0-7,7.1-8.1,9c-1.3,2.3-2.6,5-3.8,7.6l0.1,0.1
		c1.8-1.4,3.8-2.9,6.2-2.9c1.4,0,2.7,0.7,2.7,2.4c0,3-4,4.3-6.4,4.8c0.1,0.8,0.5,5.1,1.9,5.1c0.8,0,0.9-1,1.6-1.1
		c0.6,1-0.8,2.2-1.8,2.2c-0.4,0-1-0.4-1.9-0.4c-0.6,0-1.2,0.2-1.4,0.2c-0.2,0-0.2-0.1-0.2-0.3c0-0.2,0.1-0.6,0.1-0.8
		c0-1.9-0.6-3.7-1.2-5.7c2.9,0,6.6-0.5,6.6-3.8c0-0.9-0.4-1.4-1.2-1.4c-2.7,0-5.5,3.6-7,5.6c-0.8,1.1-2.5,3.7-2.5,4.9
		c0,0.3,0.1,0.7,0.5,0.7c1.3,0,1.6-1.2,2-1.2c0.1,0,0.2,0.2,0.2,0.3c0,0.5-1.1,1.7-2.4,1.7c-1.5,0-2-0.2-2.6-0.2
		c-0.8,0-1.5,0.2-2.4,0.2c-1,0-1.6-0.1-1.6-0.5c0-0.3,0.6-0.4,1.2-0.4c1.5,0,4.3-5.1,4.6-5.7c5.3-9.9,7.8-15.2,12.5-19.3
		c1.4-1.2,2.5-2,4.4-2c1.5,0,2.9,1.1,2.9,2.7C201.8,223.2,201.7,223.3,201.6,223.3L201.6,223.3z M211.5,241.2
		c-1.9,1.3-4.1,1.8-6.1,1.8c-0.6,0-1.4,0-2-0.2c0,2.3,2.3,4,4.1,4c2,0,3.5-0.8,4.2-1.3c0.4-0.3,0.7-0.6,1-0.6c0.1,0,0.2,0.1,0.2,0.3
		c0,0.7-2.4,2-2.8,2.2c-1.5,0.8-2.6,0.8-4.2,0.8c-3.1,0-5.7-2-5.7-5.2c0-5.2,7.4-8.7,12-8.7c1.2,0,2.4,0.6,2.4,2.1
		C214.7,237.7,213.2,240,211.5,241.2L211.5,241.2z M209.9,235.6c-2.7,0-6.6,3.4-6.6,6.3c0.5,0,1,0.2,1.6,0.2c1.9,0,3.4-0.5,4.6-1.5
		c1.3-1.1,2.5-2.5,2.5-3.7C212,235.8,210.9,235.6,209.9,235.6L209.9,235.6z M230.8,225.7c-1.5,2.2-3.1,6.3-4.3,9.5
		c1.1,0,2.3,0.1,2.3,0.3c0,0.4-0.7,0.5-2.6,0.6c-1.4,3.6-3.2,7.4-6.2,10.1c0.8,0,1.6,0.3,2.4,0.3c0.4,0,0.9-0.1,1.1-0.1
		c0.1,0,0.2,0.1,0.2,0.3c0,0.9-1.2,1.6-2.5,1.6c-0.9,0-1.4-0.3-2.4-0.3c-0.7,0-1,0.3-1.1,0.3c-0.1,0-0.2-0.1-0.2-0.2
		c0-0.1,0.1-0.3,0.3-0.6c2.2-3.1,5.8-11,5.8-11.3c0-0.3-1.7-0.2-1.7-0.5c0-0.3,0.2-0.4,0.5-0.5c2.5-1.1,4.6-4.8,5.6-6.8
		c0.4-0.8,2.6-3.6,3.2-3.6c0.1,0,0.2,0,0.2,0.2C231.4,225.2,231.1,225.3,230.8,225.7L230.8,225.7z M241.8,238.4
		c-1.6,0-1.6-2.4-2-2.5c-0.3-0.1-0.6-0.2-1.1-0.2c-1,0-1.7,0.5-1.7,1.5c0,0.7,0.9,1.9,1.8,3.1c0.9,1.3,1.8,2.7,1.8,4.1
		c0,2.5-2.7,3.9-5,3.9c-2.1,0-2.3,0-3.6-0.8c-0.7-0.4-1.6-1.6-1.6-2.4c0-0.6,0.3-1.3,1-1.3c0.9,0,1.2,1.1,1.2,1.7
		c0,0.4-0.2,0.8-0.2,1.1c0,0.7,1.9,0.8,2.5,0.8c1.8,0,3.3-0.9,3.3-2.8c0-1.2-0.9-2.4-1.5-3.4c-0.7-1.1-1.4-2.2-1.4-3.3
		c0-2.1,1.5-3.1,3.5-3.1c1.3,0,4.1,1,4.1,2.6C242.8,238.1,242.5,238.4,241.8,238.4L241.8,238.4z M48.3,280.9c-1.8,0-0.6-2.5-3.1-2.5
		c-3.9,0-7.4,12.8-8.6,15.5l0.1,0.1c0.3-0.5,1.4-1,2-1c1.1,0,1.7,0.6,1.7,1.7c0,0.6-0.5,1.2-1.1,1.2c-1,0-0.7-0.5-1.2-0.5
		c-0.7,0-1.6,0.8-2.2,1c-1.3,3.6-2.6,8.2-5.2,12.8c-1.9,3.4-6.4,8.8-8.2,8.8c-0.1,0-0.3,0-0.3-0.2c0-0.2,0.2-0.4,0.4-0.5
		c5.5-4.2,8.5-14.9,10.4-20.3c1.9-5.6,6.9-19.5,13.1-19.5c1.3,0,3.3,0.7,3.3,2.3C49.3,280.4,48.8,280.9,48.3,280.9L48.3,280.9z
		 M59.2,290.1c-1,0-1.6-0.9-1.6-1.7c0-0.9,0.7-1.7,1.6-1.7c1,0,1.6,0.9,1.6,1.7C60.8,289.2,60.2,290.1,59.2,290.1L59.2,290.1z
		 M60.8,293.1c0,0.2-0.2,0.4-0.3,0.7c-0.8,1.9-4.9,8.9-4.9,10.2c0,0.8,0.5,0.9,1.1,0.9c0.2,0,0.5-0.1,0.7-0.1c0.2,0,0.4,0.1,0.4,0.3
		c0,0.3-0.7,0.7-1.3,0.7c-1.5,0-2-0.3-2.9-0.3c-0.6,0-0.9,0.3-1.3,0.3c-0.1,0-0.2,0-0.2-0.2c0-0.3,0.3-0.7,0.5-1l-0.1-0.1
		c-1.4,1-2.4,1.3-4.2,1.3c-2,0-3.7-1-3.7-3.2c0-2.8,2.4-5.3,3.6-7.7c-0.3,0-1.9,0.7-2.4,0.7c-0.2,0-0.2,0-0.2-0.4s5.6-2.3,5.8-2.3
		c0.2,0,0.3,0.2,0.3,0.3c0,0.9-4.6,7.1-4.6,9.2c0,1.5,0.6,2.5,1.9,2.5c3.3,0,4.6-2.3,6-5c0.9-1.6,1.8-3.4,2.7-5.1
		c-0.3,0-1.4,0.4-1.8,0.4c-0.1,0-0.2,0-0.2-0.3c0-0.2,4.4-2.1,5-2.1C60.6,292.8,60.8,292.9,60.8,293.1L60.8,293.1z M51.4,290.1
		c-1,0-1.6-0.9-1.6-1.7c0-0.9,0.7-1.7,1.6-1.7c1,0,1.6,0.9,1.6,1.7C53.1,289.2,52.4,290.1,51.4,290.1L51.4,290.1z M78.1,297
		c-0.5,0-0.9,0-0.9-0.4c0-0.2,0.6-1.1,0.6-1.7c0-0.6-0.4-1.2-1.2-1.2c-3.8,0-9,7.9-9,10.3c0,0.6,0.1,0.9,0.8,0.9
		c1.3,0,1.2-0.6,1.7-0.6c0.2,0,0.2,0.1,0.2,0.3c0,0.4-0.9,1.2-2,1.2c-1.5,0-2.2-0.2-2.9-0.2c-0.8,0-1.5,0.2-2.6,0.2
		c-0.8,0-1.1-0.1-1.1-0.4c0-0.3,0.3-0.5,1.2-0.5c1.2,0,1.8-1,2.4-2.1c0.7-1.3,2.5-4.9,4.9-8.7c-0.7,0.1-1.5,0.6-2.1,0.6
		c-0.1,0-0.3-0.2-0.3-0.4c0-0.4,4.4-1.7,5.4-1.7c0.3,0,0.6,0,0.6,0.2c0,0.4-0.7,0.9-1.1,1.8l0.1,0.1c1.2-1.2,3.5-2.2,5.3-2.2
		c1.4,0,2.4,0.6,2.4,2.1C80.6,296.3,79.5,297,78.1,297L78.1,297z M117.9,281.2c-0.2,0-0.4-0.1-0.4-0.3c0-0.9-0.4-2.8-2.7-2.8
		c-5.9,0-12,14.5-14.5,18.6l0.1,0.1c2.4-1.7,5.5-4.4,8.6-4.4c1.8,0,3.1,1.4,3.1,3.2c0,2.9-4.1,7.2-4.1,8.5c0,0.5,0.2,0.9,0.7,0.9
		c0.9,0,1.4-0.9,1.5-0.9c0.1,0,0.4,0,0.4,0.2c0,0.6-1.3,1.5-2.9,1.5c-0.9,0-1.8-0.2-2.7-0.2c-0.8,0-1.5,0.1-2.2,0.1
		c-0.7,0-1.1-0.1-1.1-0.5c0-0.3,0.2-0.3,0.5-0.3c1,0,1.4-0.1,2.1-0.9c2.4-2.7,5.3-7.9,5.3-9.2c0-1-0.3-1.6-1.4-1.6
		c-4.8,0-11.3,8.1-11.3,11c0,0.6,0.3,0.7,0.9,0.7c0.9,0,1.8-1.3,2.3-1.3c0,0,0.2,0,0.2,0.3c0,0.8-1.4,2-3,2c-1.1,0-1.7-0.1-2.4-0.1
		c-0.8,0-1.6,0.1-2.6,0.1c-1.2,0-1.7-0.6-1.7-0.9c0-0.2,0.1-0.4,0.3-0.4c0.1,0,0.4,0.4,1.1,0.4c1.3,0,2.4-2.3,3.3-3.7
		c3.6-6.1,11.9-24,19.8-24c2,0,3.6,1.7,3.6,3.7C118.3,281.1,118.1,281.2,117.9,281.2L117.9,281.2z M128.6,298.8
		c-1.9,1.3-4.1,1.8-6.1,1.8c-0.6,0-1.4,0-2-0.2c0,2.3,2.3,4,4.1,4c2,0,3.5-0.8,4.2-1.3c0.4-0.3,0.7-0.6,1-0.6c0.1,0,0.2,0.1,0.2,0.3
		c0,0.7-2.4,2-2.8,2.2c-1.5,0.8-2.6,0.8-4.2,0.8c-3.1,0-5.7-2-5.7-5.2c0-5.2,7.4-8.7,12-8.7c1.2,0,2.4,0.6,2.4,2.1
		C131.7,295.3,130.2,297.6,128.6,298.8L128.6,298.8z M127,293.2c-2.7,0-6.6,3.4-6.6,6.3c0.5,0,1,0.2,1.6,0.2c1.9,0,3.4-0.5,4.6-1.5
		c1.3-1.1,2.5-2.5,2.5-3.7C129,293.4,127.9,293.2,127,293.2L127,293.2z M152.4,293.8c-0.8,1.9-4.9,8.9-4.9,10.2
		c0,0.8,0.5,0.9,1.1,0.9c0.2,0,0.5-0.1,0.7-0.1c0.2,0,0.4,0.1,0.4,0.3c0,0.3-0.7,0.7-1.3,0.7c-1.5,0-2-0.3-2.9-0.3
		c-0.6,0-0.9,0.3-1.3,0.3c-0.1,0-0.2,0-0.2-0.2c0-0.3,0.3-0.7,0.5-1l-0.1-0.1c-1.4,1-2.4,1.3-4.2,1.3c-2,0-3.7-1-3.7-3.2
		c0-2.8,2.4-5.3,3.6-7.7c-0.3,0-1.9,0.7-2.4,0.7c-0.2,0-0.2,0-0.2-0.4s5.6-2.3,5.8-2.3c0.2,0,0.3,0.2,0.3,0.3c0,0.9-4.6,7.1-4.6,9.2
		c0,1.5,0.6,2.5,1.9,2.5c3.3,0,4.6-2.3,6-5c0.9-1.6,1.8-3.4,2.7-5.1c-0.3,0-1.4,0.4-1.8,0.4c-0.1,0-0.2,0-0.2-0.3
		c0-0.2,4.4-2.1,5-2.1c0.2,0,0.4,0,0.4,0.2C152.7,293.3,152.5,293.5,152.4,293.8L152.4,293.8z M169,283.3c-1.5,2.2-3.1,6.3-4.3,9.5
		c1.1,0,2.3,0.1,2.3,0.3c0,0.4-0.7,0.5-2.6,0.6c-1.4,3.6-3.2,7.4-6.2,10.1c0.8,0,1.6,0.3,2.4,0.3c0.4,0,0.9-0.1,1.1-0.1
		c0.1,0,0.2,0.1,0.2,0.3c0,0.9-1.2,1.6-2.5,1.6c-0.9,0-1.4-0.3-2.4-0.3c-0.7,0-1,0.3-1.1,0.3c-0.1,0-0.2-0.1-0.2-0.2
		c0-0.1,0.1-0.3,0.3-0.6c2.2-3.1,5.8-11,5.8-11.3c0-0.3-1.7-0.2-1.7-0.5c0-0.3,0.2-0.4,0.5-0.5c2.5-1.1,4.6-4.8,5.6-6.8
		c0.4-0.8,2.6-3.6,3.2-3.6c0.1,0,0.2,0,0.2,0.2C169.6,282.8,169.3,282.9,169,283.3L169,283.3z M181.1,298.8
		c-1.9,1.3-4.1,1.8-6.1,1.8c-0.6,0-1.4,0-2-0.2c0,2.3,2.3,4,4.1,4c2,0,3.5-0.8,4.2-1.3c0.4-0.3,0.7-0.6,1-0.6c0.1,0,0.2,0.1,0.2,0.3
		c0,0.7-2.4,2-2.8,2.2c-1.5,0.8-2.6,0.8-4.2,0.8c-3.1,0-5.7-2-5.7-5.2c0-5.2,7.4-8.7,12-8.7c1.2,0,2.4,0.6,2.4,2.1
		C184.2,295.3,182.8,297.6,181.1,298.8L181.1,298.8z M179.5,293.2c-2.7,0-6.6,3.4-6.6,6.3c0.5,0,1,0.2,1.6,0.2
		c1.9,0,3.4-0.5,4.6-1.5c1.3-1.1,2.5-2.5,2.5-3.7C181.6,293.4,180.5,293.2,179.5,293.2L179.5,293.2z M189.3,305.8
		c-0.8,0-1.6-0.5-1.6-1.6c0-1.1,0.8-1.6,1.6-1.6c0.8,0,1.6,0.5,1.6,1.6C190.9,305.3,190.1,305.8,189.3,305.8L189.3,305.8z
		 M202.4,305.8c-0.8,0-1.6-0.5-1.6-1.6c0-1.1,0.8-1.6,1.6-1.6c0.8,0,1.6,0.5,1.6,1.6C204,305.3,203.2,305.8,202.4,305.8L202.4,305.8
		z M215.4,305.8c-0.8,0-1.6-0.5-1.6-1.6c0-1.1,0.8-1.6,1.6-1.6c0.8,0,1.6,0.5,1.6,1.6C217,305.3,216.3,305.8,215.4,305.8
		L215.4,305.8z"/>
</g>
</svg>
