<?xml version="1.0" encoding="utf-8"?>
<!-- Generator: Adobe Illustrator 22.1.0, SVG Export Plug-In . SVG Version: 6.00 Build 0)  -->
<svg version="1.1" id="Layer_1" xmlns="http://www.w3.org/2000/svg" xmlns:xlink="http://www.w3.org/1999/xlink" x="0px" y="0px"
	 viewBox="0 0 135.4 32.7" style="enable-background:new 0 0 135.4 32.7;" xml:space="preserve">
<style type="text/css">
	.st0{fill:#666666;}
</style>
<g>
	<g>
		<path class="st0" d="M32.5,22.1c-0.1,0.1-0.2,0.1-0.3,0.3c0,0.1-0.1,0.4-0.1,0.7v6.1c0,0.3,0,0.5,0.1,0.7c0,0.1,0.1,0.2,0.3,0.3
			c0.1,0.1,0.3,0.1,0.6,0.1v0.2c-0.4,0-0.9,0-1.6,0c-0.7,0-1.2,0-1.6,0v-0.2c0.3,0,0.5,0,0.6-0.1c0.1-0.1,0.2-0.1,0.3-0.3
			c0-0.1,0.1-0.4,0.1-0.7v-6.5l-2.9,7.9h-0.2l-3.1-7.9V29c0,0.3,0,0.6,0.1,0.7c0.1,0.2,0.2,0.3,0.3,0.3c0.2,0.1,0.4,0.1,0.7,0.1v0.2
			c-0.3,0-0.7,0-1.2,0c-0.5,0-0.9,0-1.1,0v-0.2c0.3,0,0.5-0.1,0.6-0.1c0.1-0.1,0.2-0.2,0.3-0.3c0.1-0.2,0.1-0.4,0.1-0.7v-5.9
			c0-0.3,0-0.5-0.1-0.7c0-0.1-0.1-0.2-0.3-0.3c-0.1-0.1-0.3-0.1-0.6-0.1v-0.2c0.3,0,0.6,0,1.1,0c0.4,0,0.8,0,1,0l2.7,7.1l2.6-7.1
			h0.6c0.7,0,1.2,0,1.6,0V22C32.8,22.1,32.6,22.1,32.5,22.1"/>
		<path class="st0" d="M38.6,29.8c-0.2,0.2-0.5,0.5-0.8,0.6c-0.3,0.2-0.7,0.2-1,0.2c-0.6,0-1.1-0.1-1.5-0.4c-0.4-0.3-0.7-0.6-1-1.1
			c-0.2-0.5-0.3-1-0.3-1.7c0-0.7,0.1-1.3,0.3-1.8c0.2-0.5,0.5-0.9,1-1.2c0.4-0.3,0.9-0.4,1.5-0.4c0.7,0,1.3,0.2,1.7,0.7
			c0.4,0.4,0.6,1.1,0.6,2h-3.8c0,0.2,0,0.5,0,0.8c0,0.5,0.1,1,0.3,1.4c0.2,0.4,0.4,0.7,0.7,0.9c0.3,0.2,0.6,0.3,0.9,0.3
			c0.8,0,1.4-0.4,1.8-1.2l0.2,0.1C39,29.3,38.8,29.5,38.6,29.8 M37.8,25.3c-0.1-0.3-0.2-0.6-0.4-0.8c-0.2-0.2-0.4-0.3-0.7-0.3
			c-0.3,0-0.5,0.1-0.7,0.2c-0.2,0.2-0.4,0.4-0.5,0.7c-0.1,0.3-0.2,0.7-0.3,1.2h2.7C37.9,26,37.8,25.7,37.8,25.3"/>
		<path class="st0" d="M42,29.8c0.1,0.1,0.2,0.2,0.3,0.3c0.1,0.1,0.3,0.1,0.5,0.1v0.3c-0.7,0-1.2,0-1.5,0c-0.2,0-0.7,0-1.5,0v-0.3
			c0.2,0,0.4,0,0.5-0.1c0.1-0.1,0.2-0.1,0.3-0.3c0.1-0.1,0.1-0.3,0.1-0.5v-7c0-0.4-0.1-0.7-0.2-0.8c-0.1-0.2-0.4-0.3-0.7-0.3V21
			c0.3,0,0.5,0,0.8,0c0.5,0,0.9-0.1,1.3-0.2v8.5C41.9,29.5,41.9,29.7,42,29.8"/>
		<path class="st0" d="M46.7,24.5c-0.2-0.2-0.5-0.3-0.8-0.3c-0.6,0-1,0.1-1.2,0.4c0.2,0,0.3,0.1,0.4,0.3c0.1,0.1,0.2,0.3,0.2,0.5
			c0,0.2-0.1,0.4-0.2,0.5c-0.1,0.1-0.3,0.2-0.5,0.2c-0.2,0-0.4-0.1-0.5-0.2c-0.1-0.1-0.2-0.3-0.2-0.5c0-0.3,0.2-0.6,0.6-0.9
			c0.2-0.1,0.4-0.2,0.7-0.3c0.3-0.1,0.6-0.1,1-0.1c0.3,0,0.6,0,0.9,0.1c0.3,0.1,0.5,0.2,0.6,0.3c0.2,0.2,0.3,0.4,0.4,0.7
			c0.1,0.3,0.1,0.6,0.1,1v3.4c0,0.2,0,0.4,0.1,0.4c0.1,0.1,0.2,0.1,0.3,0.1c0.1,0,0.2,0,0.3-0.1c0.1,0,0.2-0.1,0.3-0.2l0.1,0.2
			c-0.1,0.1-0.3,0.2-0.4,0.3c-0.1,0.1-0.2,0.1-0.3,0.1c-0.1,0-0.3,0.1-0.4,0.1c-0.4,0-0.7-0.1-0.8-0.3C47.1,30,47,29.8,47,29.4
			c-0.2,0.4-0.5,0.7-0.9,0.8c-0.3,0.2-0.7,0.2-1,0.2c-0.3,0-0.5,0-0.8-0.1c-0.2-0.1-0.4-0.2-0.6-0.5c-0.1-0.2-0.2-0.5-0.2-0.8
			c0-0.3,0.1-0.6,0.2-0.8c0.2-0.2,0.4-0.4,0.6-0.6c0.3-0.2,0.6-0.3,1.1-0.5c0.1,0,0.3-0.1,0.6-0.2c0.3-0.1,0.5-0.3,0.7-0.4
			c0.1-0.1,0.2-0.3,0.2-0.4v-0.8C47,25,46.9,24.7,46.7,24.5 M46.7,27c-0.1,0.1-0.4,0.2-0.9,0.4c-0.2,0.1-0.4,0.2-0.6,0.3
			c-0.2,0.1-0.3,0.3-0.4,0.5c-0.1,0.2-0.2,0.4-0.2,0.7c0,0.4,0.1,0.6,0.3,0.8c0.2,0.2,0.4,0.3,0.7,0.3c0.5,0,1-0.3,1.4-0.9v-2.4
			C46.9,26.8,46.8,26.9,46.7,27"/>
		<path class="st0" d="M52.4,24.3c0.4-0.2,0.8-0.3,1.2-0.3c0.6,0,1,0.2,1.3,0.5c0.2,0.2,0.3,0.4,0.3,0.6c0.1,0.2,0.1,0.6,0.1,1v3.3
			c0,0.2,0,0.4,0.1,0.5c0.1,0.1,0.2,0.2,0.3,0.3c0.1,0.1,0.3,0.1,0.5,0.1v0.3c-0.7,0-1.2,0-1.5,0c-0.2,0-0.7,0-1.4,0v-0.3
			c0.2,0,0.4,0,0.5-0.1c0.1-0.1,0.2-0.1,0.3-0.3c0.1-0.1,0.1-0.3,0.1-0.5v-3.5c0-0.3,0-0.5-0.1-0.7c0-0.2-0.1-0.4-0.3-0.5
			c-0.1-0.1-0.4-0.2-0.6-0.2c-0.3,0-0.6,0.1-0.9,0.3c-0.3,0.2-0.5,0.5-0.6,0.8c-0.1,0.3-0.2,0.7-0.2,1.1v2.7c0,0.2,0,0.4,0.1,0.5
			c0.1,0.1,0.1,0.2,0.3,0.3c0.1,0.1,0.3,0.1,0.5,0.1v0.3c-0.7,0-1.1,0-1.4,0c-0.2,0-0.7,0-1.5,0v-0.3c0.2,0,0.4,0,0.5-0.1
			c0.1-0.1,0.2-0.1,0.3-0.3c0.1-0.1,0.1-0.3,0.1-0.5v-3.8c0-0.4-0.1-0.7-0.2-0.8c-0.1-0.2-0.4-0.3-0.7-0.3v-0.3c0.3,0,0.5,0,0.8,0
			c0.5,0,0.9-0.1,1.3-0.2v1.4C51.8,24.9,52.1,24.6,52.4,24.3"/>
		<path class="st0" d="M59,29.8c0.1,0.1,0.2,0.2,0.3,0.3c0.1,0.1,0.3,0.1,0.5,0.1v0.3c-0.7,0-1.2,0-1.5,0c-0.2,0-0.7,0-1.5,0v-0.3
			c0.2,0,0.4,0,0.5-0.1c0.1-0.1,0.2-0.1,0.3-0.3c0.1-0.1,0.1-0.3,0.1-0.5v-3.8c0-0.4-0.1-0.7-0.2-0.8c-0.1-0.2-0.4-0.3-0.7-0.3v-0.3
			c0.3,0,0.5,0,0.8,0c0.5,0,0.9-0.1,1.3-0.2v5.3C58.9,29.5,58.9,29.7,59,29.8 M58.6,21.2c0.1,0.1,0.2,0.2,0.3,0.3
			c0.1,0.1,0.1,0.2,0.1,0.4c0,0.1,0,0.3-0.1,0.4c-0.1,0.1-0.2,0.2-0.3,0.3c-0.1,0.1-0.2,0.1-0.4,0.1c-0.1,0-0.3,0-0.4-0.1
			c-0.1-0.1-0.2-0.2-0.3-0.3c-0.1-0.1-0.1-0.3-0.1-0.4c0-0.1,0-0.3,0.1-0.4c0.1-0.1,0.2-0.2,0.3-0.3c0.1-0.1,0.3-0.1,0.4-0.1
			C58.4,21.1,58.5,21.1,58.6,21.2"/>
		<path class="st0" d="M65.3,29.8c-0.2,0.2-0.5,0.5-0.8,0.6c-0.3,0.2-0.7,0.2-1,0.2c-0.6,0-1.1-0.1-1.5-0.4c-0.4-0.3-0.7-0.6-1-1.1
			c-0.2-0.5-0.3-1-0.3-1.7c0-0.7,0.1-1.3,0.3-1.8c0.2-0.5,0.5-0.9,1-1.2c0.4-0.3,0.9-0.4,1.5-0.4c0.7,0,1.3,0.2,1.7,0.7
			c0.4,0.4,0.6,1.1,0.6,2h-3.8c0,0.2,0,0.5,0,0.8c0,0.5,0.1,1,0.3,1.4c0.2,0.4,0.4,0.7,0.7,0.9c0.3,0.2,0.6,0.3,0.9,0.3
			c0.8,0,1.4-0.4,1.8-1.2l0.2,0.1C65.6,29.3,65.5,29.5,65.3,29.8 M64.4,25.3c-0.1-0.3-0.2-0.6-0.4-0.8c-0.2-0.2-0.4-0.3-0.7-0.3
			c-0.3,0-0.5,0.1-0.7,0.2c-0.2,0.2-0.4,0.4-0.5,0.7c-0.1,0.3-0.2,0.7-0.3,1.2h2.7C64.5,26,64.5,25.7,64.4,25.3"/>
		<path d="M72.2,22.1c-0.1,0.1-0.2,0.1-0.3,0.3c0,0.1-0.1,0.4-0.1,0.7v4.5c0,0.7,0,1.3,0,1.8c0,0.5-0.1,1-0.2,1.3
			c-0.1,0.4-0.3,0.7-0.5,1c-0.2,0.3-0.5,0.5-0.9,0.7c-0.4,0.2-0.8,0.3-1.2,0.3c-0.4,0-0.7-0.1-1-0.2c-0.4-0.2-0.6-0.5-0.6-0.8
			c0-0.2,0.1-0.3,0.2-0.5c0.1-0.1,0.3-0.2,0.5-0.2c0.2,0,0.4,0.1,0.5,0.2c0.1,0.1,0.2,0.3,0.2,0.5c0,0.2,0,0.3-0.1,0.4
			c-0.1,0.1-0.2,0.2-0.4,0.2c0.1,0.1,0.2,0.1,0.3,0.2c0.2,0,0.3,0,0.4,0c0.4,0,0.7-0.1,0.9-0.3c0.3-0.2,0.4-0.4,0.6-0.8
			c0.1-0.3,0.1-0.6,0.2-1c0-0.4,0-1,0-1.8v-5.6c0-0.3,0-0.5-0.1-0.7c0-0.1-0.1-0.2-0.3-0.3c-0.1-0.1-0.3-0.1-0.6-0.1v-0.2
			c0.3,0,0.9,0,1.6,0c0.7,0,1.2,0,1.6,0V22C72.6,22.1,72.4,22.1,72.2,22.1"/>
		<path d="M78.3,29.8c-0.2,0.2-0.5,0.5-0.8,0.6c-0.3,0.2-0.7,0.2-1,0.2c-0.6,0-1.1-0.1-1.5-0.4c-0.4-0.3-0.7-0.6-1-1.1
			c-0.2-0.5-0.3-1-0.3-1.7c0-0.7,0.1-1.3,0.3-1.8c0.2-0.5,0.5-0.9,1-1.2c0.4-0.3,0.9-0.4,1.5-0.4c0.7,0,1.3,0.2,1.7,0.7
			c0.4,0.4,0.6,1.1,0.6,2h-3.8c0,0.2,0,0.5,0,0.8c0,0.5,0.1,1,0.3,1.4c0.2,0.4,0.4,0.7,0.7,0.9c0.3,0.2,0.6,0.3,0.9,0.3
			c0.8,0,1.4-0.4,1.8-1.2l0.2,0.1C78.6,29.3,78.5,29.5,78.3,29.8 M77.4,25.3c-0.1-0.3-0.2-0.6-0.4-0.8c-0.2-0.2-0.4-0.3-0.7-0.3
			c-0.3,0-0.5,0.1-0.7,0.2c-0.2,0.2-0.4,0.4-0.5,0.7c-0.1,0.3-0.2,0.7-0.3,1.2h2.7C77.5,26,77.5,25.7,77.4,25.3"/>
		<path d="M82.9,24.5c-0.2-0.2-0.5-0.3-0.8-0.3c-0.6,0-1,0.1-1.2,0.4c0.2,0,0.3,0.1,0.4,0.3c0.1,0.1,0.2,0.3,0.2,0.5
			c0,0.2-0.1,0.4-0.2,0.5c-0.1,0.1-0.3,0.2-0.5,0.2c-0.2,0-0.4-0.1-0.5-0.2c-0.1-0.1-0.2-0.3-0.2-0.5c0-0.3,0.2-0.6,0.6-0.9
			c0.2-0.1,0.4-0.2,0.7-0.3c0.3-0.1,0.6-0.1,1-0.1c0.3,0,0.6,0,0.9,0.1c0.3,0.1,0.5,0.2,0.6,0.3c0.2,0.2,0.3,0.4,0.4,0.7
			c0.1,0.3,0.1,0.6,0.1,1v3.4c0,0.2,0,0.4,0.1,0.4c0.1,0.1,0.2,0.1,0.3,0.1c0.1,0,0.2,0,0.3-0.1c0.1,0,0.2-0.1,0.3-0.2l0.1,0.2
			c-0.1,0.1-0.3,0.2-0.4,0.3c-0.1,0.1-0.2,0.1-0.3,0.1c-0.1,0-0.3,0.1-0.4,0.1c-0.4,0-0.7-0.1-0.8-0.3c-0.2-0.2-0.2-0.5-0.2-0.8
			c-0.2,0.4-0.5,0.7-0.9,0.8c-0.3,0.2-0.7,0.2-1,0.2c-0.3,0-0.5,0-0.8-0.1c-0.2-0.1-0.4-0.2-0.6-0.5c-0.1-0.2-0.2-0.5-0.2-0.8
			c0-0.3,0.1-0.6,0.2-0.8c0.2-0.2,0.4-0.4,0.6-0.6c0.3-0.2,0.6-0.3,1.1-0.5c0.1,0,0.3-0.1,0.6-0.2c0.3-0.1,0.5-0.3,0.7-0.4
			c0.1-0.1,0.2-0.3,0.2-0.4v-0.8C83.2,25,83.1,24.7,82.9,24.5 M82.9,27c-0.1,0.1-0.4,0.2-0.9,0.4c-0.2,0.1-0.4,0.2-0.6,0.3
			c-0.2,0.1-0.3,0.3-0.4,0.5c-0.1,0.2-0.2,0.4-0.2,0.7c0,0.4,0.1,0.6,0.3,0.8c0.2,0.2,0.4,0.3,0.7,0.3c0.5,0,1-0.3,1.4-0.9v-2.4
			C83.1,26.8,83,26.9,82.9,27"/>
		<path d="M88.6,24.3c0.4-0.2,0.8-0.3,1.2-0.3c0.6,0,1,0.2,1.3,0.5c0.2,0.2,0.3,0.4,0.3,0.6c0.1,0.2,0.1,0.6,0.1,1v3.3
			c0,0.2,0,0.4,0.1,0.5c0.1,0.1,0.2,0.2,0.3,0.3c0.1,0.1,0.3,0.1,0.5,0.1v0.3c-0.7,0-1.2,0-1.5,0c-0.2,0-0.7,0-1.4,0v-0.3
			c0.2,0,0.4,0,0.5-0.1c0.1-0.1,0.2-0.1,0.3-0.3c0.1-0.1,0.1-0.3,0.1-0.5v-3.5c0-0.3,0-0.5-0.1-0.7c0-0.2-0.1-0.4-0.3-0.5
			c-0.1-0.1-0.4-0.2-0.6-0.2c-0.3,0-0.6,0.1-0.9,0.3c-0.3,0.2-0.5,0.5-0.6,0.8c-0.1,0.3-0.2,0.7-0.2,1.1v2.7c0,0.2,0,0.4,0.1,0.5
			c0.1,0.1,0.1,0.2,0.3,0.3c0.1,0.1,0.3,0.1,0.5,0.1v0.3c-0.7,0-1.1,0-1.4,0c-0.2,0-0.7,0-1.5,0v-0.3c0.2,0,0.4,0,0.5-0.1
			c0.1-0.1,0.2-0.1,0.3-0.3c0.1-0.1,0.1-0.3,0.1-0.5v-3.8c0-0.4-0.1-0.7-0.2-0.8c-0.1-0.2-0.4-0.3-0.7-0.3v-0.3c0.3,0,0.5,0,0.8,0
			c0.5,0,0.9-0.1,1.3-0.2v1.4C87.9,24.9,88.2,24.6,88.6,24.3"/>
		<path d="M100.1,30.4c-0.2,0.1-0.4,0.2-0.7,0.2c-0.3,0-0.6-0.1-0.8-0.3c-0.2-0.2-0.4-0.5-0.5-1l-0.3-1.2c-0.1-0.4-0.2-0.8-0.3-1
			c-0.1-0.2-0.2-0.4-0.4-0.5c-0.2-0.1-0.4-0.2-0.7-0.2h-1.2v2.8c0,0.3,0,0.5,0.1,0.7c0,0.1,0.1,0.2,0.3,0.3c0.1,0.1,0.3,0.1,0.6,0.1
			v0.2c-0.4,0-0.9,0-1.6,0c-0.7,0-1.2,0-1.6,0v-0.2c0.3,0,0.5,0,0.6-0.1c0.1-0.1,0.2-0.1,0.3-0.3c0-0.1,0.1-0.4,0.1-0.7v-6.1
			c0-0.3,0-0.5-0.1-0.7c0-0.1-0.1-0.2-0.3-0.3c-0.1-0.1-0.3-0.1-0.6-0.1v-0.2c0.3,0,0.8,0,1.5,0c0.3,0,0.7,0,1.1,0
			c0.4,0,0.6,0,0.8,0c0.6,0,1.2,0.1,1.6,0.3c0.4,0.2,0.8,0.4,1,0.8c0.2,0.3,0.3,0.7,0.3,1.1c0,0.3-0.1,0.6-0.2,1
			c-0.1,0.3-0.4,0.6-0.8,0.9c-0.4,0.3-0.8,0.4-1.4,0.5l0.1,0c0.4,0.1,0.7,0.2,0.9,0.3c0.2,0.1,0.4,0.3,0.5,0.5
			c0.1,0.2,0.2,0.5,0.3,0.8l0.3,1.2c0.1,0.3,0.1,0.4,0.2,0.6c0.1,0.1,0.1,0.2,0.2,0.3c0.1,0.1,0.2,0.1,0.3,0.1c0.1,0,0.2,0,0.3-0.1
			c0.1-0.1,0.2-0.2,0.3-0.4l0.2,0.1C100.5,30.1,100.3,30.3,100.1,30.4 M97.4,25.8c0.3-0.2,0.5-0.4,0.6-0.7c0.1-0.3,0.2-0.6,0.2-1.1
			c0-0.7-0.2-1.2-0.5-1.5c-0.3-0.3-0.8-0.5-1.6-0.5c-0.3,0-0.4,0-0.6,0.1c-0.1,0.1-0.2,0.2-0.3,0.3c0,0.1-0.1,0.4-0.1,0.7v3h0.8
			C96.6,26.1,97.1,26,97.4,25.8"/>
		<path d="M103,29.8c0.1,0.1,0.2,0.2,0.3,0.3c0.1,0.1,0.3,0.1,0.5,0.1v0.3c-0.7,0-1.2,0-1.5,0c-0.2,0-0.7,0-1.5,0v-0.3
			c0.2,0,0.4,0,0.5-0.1c0.1-0.1,0.2-0.1,0.3-0.3c0.1-0.1,0.1-0.3,0.1-0.5v-3.8c0-0.4-0.1-0.7-0.2-0.8c-0.1-0.2-0.4-0.3-0.7-0.3v-0.3
			c0.3,0,0.5,0,0.8,0c0.5,0,0.9-0.1,1.3-0.2v5.3C102.9,29.5,103,29.7,103,29.8 M102.7,21.2c0.1,0.1,0.2,0.2,0.3,0.3
			c0.1,0.1,0.1,0.2,0.1,0.4c0,0.1,0,0.3-0.1,0.4c-0.1,0.1-0.2,0.2-0.3,0.3c-0.1,0.1-0.2,0.1-0.4,0.1c-0.1,0-0.3,0-0.4-0.1
			c-0.1-0.1-0.2-0.2-0.3-0.3c-0.1-0.1-0.1-0.3-0.1-0.4c0-0.1,0-0.3,0.1-0.4c0.1-0.1,0.2-0.2,0.3-0.3c0.1-0.1,0.3-0.1,0.4-0.1
			C102.4,21.1,102.6,21.1,102.7,21.2"/>
		<path d="M109.2,29.7c-0.2,0.3-0.4,0.5-0.7,0.6c-0.3,0.2-0.7,0.2-1.1,0.2c-0.5,0-1-0.1-1.4-0.4c-0.4-0.3-0.7-0.6-1-1.1
			c-0.2-0.5-0.4-1.1-0.4-1.7c0-0.7,0.1-1.2,0.4-1.8c0.2-0.5,0.6-0.9,1-1.2c0.4-0.3,0.9-0.4,1.5-0.4c0.5,0,1,0.1,1.4,0.4
			c0.4,0.3,0.6,0.6,0.6,0.9c0,0.2-0.1,0.4-0.2,0.5c-0.1,0.1-0.3,0.2-0.5,0.2c-0.2,0-0.4-0.1-0.5-0.2c-0.1-0.1-0.2-0.3-0.2-0.5
			c0-0.2,0-0.3,0.1-0.4c0.1-0.1,0.2-0.2,0.4-0.2c-0.1-0.1-0.2-0.3-0.4-0.4c-0.2-0.1-0.4-0.1-0.7-0.1c-0.3,0-0.6,0.1-0.8,0.3
			c-0.3,0.2-0.5,0.5-0.7,1c-0.2,0.4-0.3,1-0.3,1.8c0,1,0.2,1.8,0.5,2.2c0.3,0.5,0.8,0.7,1.3,0.7c0.3,0,0.7-0.1,1-0.3
			c0.3-0.2,0.6-0.5,0.8-1l0.2,0.1C109.6,29.2,109.4,29.5,109.2,29.7"/>
		<path d="M113.2,24.3c0.4-0.2,0.8-0.3,1.2-0.3c0.6,0,1,0.2,1.3,0.5c0.2,0.2,0.3,0.4,0.3,0.6c0.1,0.2,0.1,0.6,0.1,1v3.3
			c0,0.2,0,0.4,0.1,0.5c0.1,0.1,0.2,0.2,0.3,0.3c0.1,0.1,0.3,0.1,0.5,0.1v0.3c-0.8,0-1.3,0-1.5,0c-0.2,0-0.7,0-1.4,0v-0.3
			c0.2,0,0.4,0,0.5-0.1c0.1-0.1,0.2-0.1,0.3-0.3c0.1-0.1,0.1-0.3,0.1-0.5v-3.5c0-0.3,0-0.5-0.1-0.7c0-0.2-0.1-0.4-0.3-0.5
			c-0.1-0.1-0.4-0.2-0.6-0.2c-0.3,0-0.6,0.1-0.9,0.3c-0.3,0.2-0.5,0.5-0.6,0.8c-0.1,0.3-0.2,0.7-0.2,1.1v2.7c0,0.2,0,0.4,0.1,0.5
			c0.1,0.1,0.1,0.2,0.3,0.3c0.1,0.1,0.3,0.1,0.5,0.1v0.3c-0.7,0-1.1,0-1.4,0c-0.2,0-0.7,0-1.5,0v-0.3c0.2,0,0.4,0,0.5-0.1
			c0.1-0.1,0.2-0.1,0.3-0.3c0.1-0.1,0.1-0.3,0.1-0.5v-7c0-0.4-0.1-0.7-0.2-0.8c-0.1-0.2-0.4-0.3-0.7-0.3V21c0.3,0,0.5,0,0.8,0
			c0.5,0,0.9-0.1,1.3-0.2v4.6C112.6,24.9,112.8,24.6,113.2,24.3"/>
		<path d="M120.9,24.5c-0.2-0.2-0.5-0.3-0.8-0.3c-0.6,0-1,0.1-1.2,0.4c0.2,0,0.3,0.1,0.4,0.3c0.1,0.1,0.2,0.3,0.2,0.5
			c0,0.2-0.1,0.4-0.2,0.5c-0.1,0.1-0.3,0.2-0.5,0.2c-0.2,0-0.4-0.1-0.5-0.2c-0.1-0.1-0.2-0.3-0.2-0.5c0-0.3,0.2-0.6,0.6-0.9
			c0.2-0.1,0.4-0.2,0.7-0.3c0.3-0.1,0.6-0.1,1-0.1c0.3,0,0.6,0,0.9,0.1c0.3,0.1,0.5,0.2,0.6,0.3c0.2,0.2,0.3,0.4,0.4,0.7
			c0.1,0.3,0.1,0.6,0.1,1v3.4c0,0.2,0,0.4,0.1,0.4c0.1,0.1,0.2,0.1,0.3,0.1c0.1,0,0.2,0,0.3-0.1c0.1,0,0.2-0.1,0.3-0.2l0.1,0.2
			c-0.1,0.1-0.3,0.2-0.4,0.3c-0.1,0.1-0.2,0.1-0.3,0.1c-0.1,0-0.3,0.1-0.4,0.1c-0.4,0-0.7-0.1-0.8-0.3c-0.2-0.2-0.2-0.5-0.2-0.8
			c-0.2,0.4-0.5,0.7-0.9,0.8c-0.3,0.2-0.7,0.2-1,0.2c-0.3,0-0.5,0-0.8-0.1c-0.2-0.1-0.4-0.2-0.6-0.5c-0.1-0.2-0.2-0.5-0.2-0.8
			c0-0.3,0.1-0.6,0.2-0.8c0.2-0.2,0.4-0.4,0.6-0.6c0.3-0.2,0.6-0.3,1.1-0.5c0.1,0,0.3-0.1,0.6-0.2c0.3-0.1,0.5-0.3,0.7-0.4
			c0.1-0.1,0.2-0.3,0.2-0.4v-0.8C121.2,25,121.1,24.7,120.9,24.5 M120.9,27c-0.1,0.1-0.4,0.2-0.9,0.4c-0.2,0.1-0.4,0.2-0.6,0.3
			c-0.2,0.1-0.3,0.3-0.4,0.5c-0.1,0.2-0.2,0.4-0.2,0.7c0,0.4,0.1,0.6,0.3,0.8c0.2,0.2,0.4,0.3,0.7,0.3c0.5,0,1-0.3,1.4-0.9v-2.4
			C121.1,26.8,121,26.9,120.9,27"/>
		<path d="M126.1,24.8c0.2-0.2,0.4-0.4,0.6-0.6c0.2-0.2,0.5-0.2,0.8-0.2c0.2,0,0.4,0,0.6,0.1c0.2,0.1,0.3,0.2,0.4,0.3
			c0.1,0.1,0.1,0.3,0.1,0.5c0,0.2-0.1,0.4-0.2,0.5c-0.1,0.1-0.3,0.2-0.5,0.2c-0.2,0-0.3-0.1-0.5-0.2c-0.1-0.1-0.2-0.3-0.2-0.5
			c0-0.3,0.1-0.5,0.4-0.7c-0.1-0.1-0.1-0.1-0.3-0.1c-0.3,0-0.6,0.1-0.9,0.4c-0.3,0.2-0.5,0.6-0.6,0.9c-0.1,0.4-0.2,0.7-0.2,1v2.6
			c0,0.4,0.1,0.6,0.3,0.8c0.2,0.1,0.5,0.2,1,0.2v0.3c-1,0-1.6,0-1.9,0c-0.2,0-0.7,0-1.4,0v-0.3c0.2,0,0.4,0,0.5-0.1
			c0.1-0.1,0.2-0.1,0.3-0.3c0.1-0.1,0.1-0.3,0.1-0.5v-3.8c0-0.4-0.1-0.7-0.2-0.8c-0.1-0.2-0.4-0.3-0.7-0.3v-0.3c0.3,0,0.5,0,0.8,0
			c0.5,0,0.9-0.1,1.3-0.2v1.5C125.8,25.3,126,25,126.1,24.8"/>
		<path d="M134.7,29.9c0.1,0.2,0.4,0.3,0.7,0.3v0.3c-0.3,0-0.5,0-0.8,0c-0.5,0-0.9,0.1-1.3,0.2v-1.1c-0.2,0.4-0.4,0.6-0.7,0.8
			c-0.3,0.2-0.6,0.3-1.1,0.3c-0.5,0-1-0.1-1.3-0.4c-0.4-0.2-0.7-0.6-0.9-1.1c-0.2-0.5-0.3-1.1-0.3-1.8c0-0.7,0.1-1.3,0.4-1.8
			c0.3-0.5,0.6-0.9,1-1.1c0.4-0.3,0.9-0.4,1.4-0.4c0.3,0,0.6,0.1,0.9,0.2c0.3,0.1,0.5,0.3,0.6,0.5v-2.4c0-0.4-0.1-0.7-0.2-0.8
			c-0.1-0.2-0.4-0.3-0.7-0.3V21c0.3,0,0.5,0,0.8,0c0.5,0,0.9-0.1,1.3-0.2v8.3C134.5,29.5,134.5,29.8,134.7,29.9 M132,24.3
			c-0.3,0-0.6,0.1-0.9,0.3c-0.3,0.2-0.5,0.6-0.6,1c-0.1,0.5-0.2,1-0.2,1.7c0,1,0.1,1.7,0.4,2.2c0.3,0.5,0.7,0.7,1.2,0.7
			c0.2,0,0.4-0.1,0.6-0.2c0.2-0.1,0.4-0.3,0.5-0.5c0.1-0.2,0.2-0.5,0.3-0.8v-3.6C133.1,24.6,132.7,24.3,132,24.3"/>
	</g>
	<g>
		<path class="st0" d="M16.1,0.6c-0.2,0.1-0.4,0.3-0.5,0.5c-0.1,0.2-0.1,0.6-0.1,1.2v10.9c0,0.5,0,0.9,0.1,1.2
			c0.1,0.3,0.3,0.4,0.5,0.5c0.2,0.1,0.6,0.1,1.2,0.2v0.4c-0.7,0-1.6-0.1-2.8-0.1c-1.3,0-2.2,0-2.8,0.1v-0.4c0.5,0,0.9-0.1,1.1-0.2
			c0.2-0.1,0.4-0.3,0.5-0.5c0.1-0.2,0.1-0.6,0.1-1.2V1.5L8.2,15.6H7.8L2.3,1.4V13c0,0.6,0,1,0.1,1.3c0.1,0.3,0.3,0.5,0.6,0.6
			c0.3,0.1,0.7,0.2,1.3,0.2v0.4c-0.5,0-1.3-0.1-2.2-0.1c-0.9,0-1.5,0-2,0.1v-0.4c0.5,0,0.9-0.1,1.1-0.2c0.2-0.1,0.4-0.3,0.5-0.6
			C1.7,14,1.8,13.5,1.8,13V2.3c0-0.5,0-0.9-0.1-1.2C1.6,0.9,1.4,0.7,1.2,0.6C0.9,0.5,0.5,0.5,0,0.4V0c0.5,0,1.2,0.1,2,0.1
			c0.8,0,1.4,0,1.9-0.1l4.8,12.7l4.7-12.6h1c1.2,0,2.1,0,2.8-0.1v0.4C16.7,0.5,16.3,0.5,16.1,0.6"/>
		<path d="M22.5,5.4c-0.2,0.1-0.4,0.3-0.5,0.5c-0.1,0.2-0.1,0.6-0.1,1.2v8c0,1.2,0,2.3-0.1,3.3c0,1-0.1,1.8-0.3,2.4
			c-0.2,0.7-0.5,1.3-0.9,1.8c-0.4,0.5-0.9,1-1.6,1.3c-0.6,0.3-1.4,0.5-2.2,0.5c-0.7,0-1.3-0.1-1.8-0.4c-0.7-0.4-1-0.9-1-1.5
			c0-0.3,0.1-0.6,0.3-0.8c0.2-0.2,0.5-0.3,0.8-0.3c0.3,0,0.6,0.1,0.9,0.3c0.2,0.2,0.3,0.5,0.3,0.9c0,0.3-0.1,0.6-0.2,0.7
			c-0.2,0.2-0.4,0.3-0.7,0.4c0.1,0.1,0.3,0.2,0.6,0.3c0.3,0.1,0.5,0.1,0.8,0.1c0.6,0,1.2-0.2,1.6-0.5c0.5-0.3,0.8-0.8,1-1.4
			c0.1-0.5,0.2-1,0.3-1.7c0-0.7,0.1-1.8,0.1-3.3v-10c0-0.5,0-0.9-0.1-1.2c-0.1-0.2-0.3-0.4-0.5-0.5c-0.2-0.1-0.6-0.1-1.2-0.2V4.8
			c0.6,0,1.5,0.1,2.8,0.1c1.2,0,2.1,0,2.7,0l0,0.4C23.2,5.3,22.8,5.3,22.5,5.4"/>
		<path d="M36.1,20.3c-0.3,0.2-0.8,0.3-1.3,0.3c-0.6,0-1.1-0.2-1.5-0.5c-0.4-0.3-0.7-1-0.9-1.9L32,16.1c-0.2-0.8-0.3-1.3-0.5-1.8
			c-0.2-0.4-0.4-0.7-0.7-1C30.5,13.1,30,13,29.5,13h-2.1v5c0,0.5,0,0.9,0.1,1.2c0.1,0.3,0.3,0.4,0.5,0.5c0.2,0.1,0.6,0.1,1.2,0.2
			v0.4c-0.7,0-1.6-0.1-2.8-0.1c-1.3,0-2.2,0-2.8,0.1v-0.4c0.5,0,0.9-0.1,1.2-0.2c0.2-0.1,0.4-0.3,0.5-0.5c0.1-0.2,0.1-0.6,0.1-1.2
			V7.1c0-0.5,0-0.9-0.1-1.2c-0.1-0.2-0.3-0.4-0.5-0.5c-0.2-0.1-0.6-0.1-1.2-0.2l0-0.4c0.6,0,1.5,0,2.6,0c0.6,0,1.2,0,1.9,0
			c0.7,0,1.2,0,1.4,0c1.1,0,2.1,0.2,2.9,0.5c0.8,0.3,1.4,0.8,1.8,1.4c0.4,0.6,0.6,1.2,0.6,2c0,0.6-0.1,1.1-0.4,1.7
			c-0.3,0.6-0.7,1.1-1.4,1.6c-0.6,0.5-1.5,0.8-2.5,0.9l0.3,0c0.7,0.1,1.2,0.3,1.6,0.5c0.4,0.2,0.7,0.5,0.9,0.9
			c0.2,0.4,0.4,0.9,0.6,1.5l0.5,2.2c0.1,0.4,0.2,0.8,0.3,1.1c0.1,0.3,0.2,0.4,0.3,0.6c0.1,0.1,0.3,0.2,0.5,0.2
			c0.2,0,0.4-0.1,0.6-0.2c0.2-0.1,0.4-0.3,0.6-0.6l0.3,0.2C36.8,19.7,36.5,20.1,36.1,20.3 M31.2,12.1c0.6-0.3,0.9-0.7,1.2-1.3
			c0.2-0.5,0.3-1.2,0.3-1.9c0-1.2-0.3-2.1-0.9-2.7c-0.6-0.6-1.5-0.9-2.8-0.9c-0.5,0-0.8,0.1-1,0.2c-0.2,0.1-0.4,0.3-0.5,0.6
			c-0.1,0.3-0.1,0.7-0.1,1.2v5.4h1.5C29.9,12.5,30.6,12.4,31.2,12.1"/>
	</g>
</g>
</svg>
