<?xml version="1.0" encoding="utf-8"?>
<!-- Generator: Adobe Illustrator 22.1.0, SVG Export Plug-In . SVG Version: 6.00 Build 0)  -->
<svg version="1.1" id="Layer_2" xmlns="http://www.w3.org/2000/svg" xmlns:xlink="http://www.w3.org/1999/xlink" x="0px" y="0px"
	 viewBox="0 0 135 14.3" style="enable-background:new 0 0 135 14.3;" xml:space="preserve">
<g>
	<path d="M10.8,1.5c-0.2,0.1-0.3,0.2-0.3,0.3c-0.1,0.2-0.1,0.4-0.1,0.8V10c0,0.4,0,0.6,0.1,0.8c0.1,0.2,0.2,0.3,0.3,0.3
		c0.2,0.1,0.4,0.1,0.8,0.1v0.3c-0.5,0-1.1,0-1.9,0c-0.8,0-1.5,0-1.9,0v-0.3c0.4,0,0.6-0.1,0.8-0.1c0.2-0.1,0.3-0.2,0.3-0.3
		C9,10.6,9,10.4,9,10V2.1l-3.6,9.5H5.3L1.5,2.1v7.8c0,0.4,0,0.7,0.1,0.9C1.7,10.9,1.8,11,2,11.1c0.2,0.1,0.5,0.1,0.9,0.1v0.3
		c-0.4,0-0.9,0-1.5,0c-0.6,0-1,0-1.4,0v-0.3c0.3,0,0.6-0.1,0.8-0.1C0.9,11,1,10.9,1.1,10.7c0.1-0.2,0.1-0.5,0.1-0.9V2.7
		c0-0.4,0-0.6-0.1-0.8C1,1.7,0.9,1.6,0.8,1.5C0.6,1.5,0.4,1.4,0,1.4V1.1c0.3,0,0.8,0,1.4,0c0.5,0,0.9,0,1.3,0l3.2,8.6L9,1.2h0.7
		c0.8,0,1.4,0,1.9,0v0.3C11.3,1.4,11,1.5,10.8,1.5"/>
	<path d="M18.2,10.8c-0.3,0.3-0.6,0.5-0.9,0.7c-0.4,0.2-0.8,0.3-1.3,0.3c-0.7,0-1.3-0.2-1.8-0.5c-0.5-0.3-0.9-0.8-1.2-1.3
		c-0.3-0.6-0.4-1.2-0.4-2c0-0.9,0.1-1.6,0.4-2.2c0.3-0.6,0.7-1.1,1.2-1.5c0.5-0.3,1.1-0.5,1.8-0.5c0.9,0,1.6,0.3,2,0.8
		c0.5,0.5,0.7,1.3,0.7,2.4h-4.6c0,0.3-0.1,0.6-0.1,0.9c0,0.6,0.1,1.2,0.3,1.7c0.2,0.5,0.5,0.9,0.8,1.1c0.3,0.3,0.7,0.4,1.1,0.4
		c1,0,1.7-0.5,2.2-1.5l0.3,0.1C18.7,10.1,18.5,10.5,18.2,10.8 M17.2,5.4c-0.1-0.4-0.3-0.7-0.5-1C16.5,4.2,16.2,4,15.9,4
		c-0.3,0-0.6,0.1-0.8,0.3c-0.3,0.2-0.5,0.5-0.6,0.9c-0.2,0.4-0.3,0.9-0.3,1.5h3.2C17.3,6.2,17.3,5.8,17.2,5.4"/>
	<path d="M22.3,10.8c0.1,0.2,0.2,0.3,0.4,0.3c0.2,0.1,0.4,0.1,0.7,0.1v0.3c-0.9,0-1.5-0.1-1.8-0.1c-0.3,0-0.9,0-1.8,0.1v-0.3
		c0.3,0,0.5,0,0.7-0.1c0.2-0.1,0.3-0.2,0.4-0.3c0.1-0.2,0.1-0.4,0.1-0.6V1.8c0-0.5-0.1-0.8-0.2-1c-0.2-0.2-0.5-0.3-0.9-0.3V0.2
		c0.3,0,0.6,0,0.9,0c0.6,0,1.1-0.1,1.5-0.2v10.2C22.2,10.5,22.2,10.7,22.3,10.8"/>
	<path d="M28,4.4c-0.2-0.2-0.6-0.3-1-0.3c-0.7,0-1.2,0.2-1.5,0.5c0.2,0,0.4,0.2,0.5,0.3c0.1,0.2,0.2,0.4,0.2,0.6
		c0,0.2-0.1,0.4-0.2,0.6c-0.2,0.1-0.4,0.2-0.6,0.2c-0.2,0-0.4-0.1-0.6-0.3c-0.1-0.2-0.2-0.4-0.2-0.7c0-0.4,0.2-0.7,0.7-1.1
		c0.2-0.2,0.5-0.3,0.9-0.4c0.4-0.1,0.7-0.2,1.2-0.2c0.4,0,0.8,0,1.1,0.1c0.3,0.1,0.5,0.2,0.7,0.4c0.2,0.2,0.4,0.5,0.5,0.8
		c0.1,0.3,0.1,0.7,0.1,1.3v4.1c0,0.2,0,0.4,0.1,0.5c0.1,0.1,0.2,0.2,0.3,0.2c0.1,0,0.2,0,0.3-0.1c0.1-0.1,0.2-0.1,0.3-0.2l0.2,0.3
		c-0.2,0.1-0.3,0.2-0.4,0.3c-0.1,0.1-0.2,0.1-0.4,0.2c-0.1,0-0.3,0.1-0.5,0.1c-0.5,0-0.8-0.1-1-0.4c-0.2-0.2-0.3-0.6-0.3-1
		c-0.3,0.5-0.6,0.8-1,1c-0.4,0.2-0.8,0.3-1.2,0.3c-0.3,0-0.7-0.1-0.9-0.2c-0.3-0.1-0.5-0.3-0.7-0.5c-0.2-0.2-0.3-0.6-0.3-0.9
		c0-0.4,0.1-0.7,0.3-1c0.2-0.3,0.4-0.5,0.8-0.7c0.3-0.2,0.8-0.4,1.3-0.7c0.1,0,0.3-0.1,0.7-0.3c0.4-0.2,0.6-0.3,0.8-0.5
		c0.2-0.2,0.2-0.3,0.2-0.5V5.5C28.4,5,28.2,4.6,28,4.4 M28,7.4c-0.2,0.1-0.5,0.3-1.1,0.5c-0.3,0.1-0.5,0.3-0.7,0.4
		c-0.2,0.1-0.4,0.3-0.5,0.6c-0.1,0.2-0.2,0.5-0.2,0.9c0,0.4,0.1,0.8,0.3,1c0.2,0.2,0.5,0.3,0.9,0.3c0.7,0,1.2-0.4,1.7-1.1V7.1
		C28.3,7.2,28.2,7.3,28,7.4"/>
	<path d="M34.9,4.2c0.4-0.3,0.9-0.4,1.5-0.4c0.7,0,1.2,0.2,1.6,0.6c0.2,0.2,0.3,0.5,0.4,0.7c0.1,0.3,0.1,0.7,0.1,1.2v3.9
		c0,0.3,0,0.5,0.1,0.6c0.1,0.2,0.2,0.3,0.4,0.3c0.2,0.1,0.4,0.1,0.7,0.1v0.3c-0.9,0-1.5-0.1-1.8-0.1c-0.3,0-0.8,0-1.6,0.1v-0.3
		c0.2,0,0.4,0,0.6-0.1c0.1-0.1,0.2-0.2,0.3-0.3c0.1-0.2,0.1-0.4,0.1-0.6V5.9c0-0.4,0-0.7-0.1-0.9c-0.1-0.2-0.2-0.4-0.3-0.6
		c-0.2-0.1-0.4-0.2-0.8-0.2c-0.4,0-0.8,0.1-1.1,0.4c-0.3,0.2-0.6,0.6-0.7,1C34,6,33.9,6.4,33.9,6.9v3.3c0,0.3,0,0.5,0.1,0.6
		c0.1,0.2,0.2,0.3,0.3,0.3c0.1,0.1,0.3,0.1,0.6,0.1v0.3c-0.8,0-1.4-0.1-1.7-0.1s-0.9,0-1.8,0.1v-0.3c0.3,0,0.5,0,0.7-0.1
		c0.2-0.1,0.3-0.2,0.4-0.3c0.1-0.2,0.1-0.4,0.1-0.6V5.6c0-0.5-0.1-0.8-0.2-1c-0.2-0.2-0.5-0.3-0.9-0.3V4c0.3,0,0.6,0,0.9,0
		c0.6,0,1.1-0.1,1.5-0.2v1.7C34.1,4.9,34.5,4.5,34.9,4.2"/>
	<path d="M42.8,10.8c0.1,0.2,0.2,0.3,0.4,0.3c0.2,0.1,0.4,0.1,0.7,0.1v0.3c-0.9,0-1.5-0.1-1.8-0.1c-0.3,0-0.9,0-1.8,0.1v-0.3
		c0.3,0,0.5,0,0.7-0.1c0.2-0.1,0.3-0.2,0.4-0.3c0.1-0.2,0.1-0.4,0.1-0.6V5.6c0-0.5-0.1-0.8-0.2-1c-0.2-0.2-0.5-0.3-0.9-0.3V4
		c0.3,0,0.6,0,0.9,0c0.6,0,1.1-0.1,1.5-0.2v6.4C42.7,10.5,42.7,10.7,42.8,10.8 M42.4,0.4c0.1,0.1,0.3,0.2,0.3,0.3
		c0.1,0.1,0.1,0.3,0.1,0.5c0,0.2,0,0.3-0.1,0.5C42.6,1.8,42.5,2,42.4,2c-0.1,0.1-0.3,0.1-0.5,0.1c-0.2,0-0.3,0-0.5-0.1
		c-0.1-0.1-0.3-0.2-0.3-0.3C41,1.5,41,1.4,41,1.2c0-0.2,0-0.3,0.1-0.5c0.1-0.1,0.2-0.3,0.3-0.3c0.1-0.1,0.3-0.1,0.5-0.1
		C42.1,0.3,42.2,0.3,42.4,0.4"/>
	<path d="M50.4,10.8c-0.3,0.3-0.6,0.5-0.9,0.7c-0.4,0.2-0.8,0.3-1.3,0.3c-0.7,0-1.3-0.2-1.8-0.5c-0.5-0.3-0.9-0.8-1.2-1.3
		c-0.3-0.6-0.4-1.2-0.4-2c0-0.9,0.1-1.6,0.4-2.2c0.3-0.6,0.7-1.1,1.2-1.5c0.5-0.3,1.1-0.5,1.8-0.5c0.9,0,1.6,0.3,2,0.8
		c0.5,0.5,0.7,1.3,0.7,2.4h-4.6c0,0.3-0.1,0.6-0.1,0.9c0,0.6,0.1,1.2,0.3,1.7c0.2,0.5,0.5,0.9,0.8,1.1c0.3,0.3,0.7,0.4,1.1,0.4
		c1,0,1.7-0.5,2.2-1.5l0.3,0.1C50.8,10.1,50.6,10.5,50.4,10.8 M49.3,5.4c-0.1-0.4-0.3-0.7-0.5-1C48.7,4.2,48.4,4,48.1,4
		c-0.3,0-0.6,0.1-0.8,0.3c-0.3,0.2-0.5,0.5-0.6,0.9c-0.2,0.4-0.3,0.9-0.3,1.5h3.2C49.5,6.2,49.4,5.8,49.3,5.4"/>
	<path d="M58.8,1.5c-0.2,0.1-0.3,0.2-0.3,0.3c-0.1,0.2-0.1,0.4-0.1,0.8v5.4c0,0.8,0,1.6,0,2.2c0,0.6-0.1,1.2-0.2,1.6
		c-0.1,0.5-0.3,0.9-0.6,1.2c-0.3,0.4-0.6,0.6-1.1,0.9c-0.4,0.2-0.9,0.3-1.5,0.3c-0.5,0-0.9-0.1-1.2-0.3c-0.5-0.2-0.7-0.6-0.7-1
		c0-0.2,0.1-0.4,0.2-0.6c0.1-0.1,0.3-0.2,0.6-0.2c0.2,0,0.4,0.1,0.6,0.2c0.2,0.1,0.2,0.3,0.2,0.6c0,0.2-0.1,0.4-0.2,0.5
		c-0.1,0.1-0.3,0.2-0.5,0.2c0.1,0.1,0.2,0.1,0.4,0.2c0.2,0,0.4,0.1,0.5,0.1c0.4,0,0.8-0.1,1.1-0.3c0.3-0.2,0.5-0.5,0.7-0.9
		c0.1-0.3,0.2-0.7,0.2-1.1c0-0.5,0.1-1.2,0.1-2.2V2.7c0-0.4,0-0.6-0.1-0.8c-0.1-0.2-0.2-0.3-0.3-0.3c-0.2-0.1-0.4-0.1-0.8-0.1V1.1
		c0.4,0,1,0,1.9,0c0.8,0,1.4,0,1.9,0v0.3C59.2,1.4,58.9,1.5,58.8,1.5"/>
	<path d="M66.1,10.8c-0.3,0.3-0.6,0.5-0.9,0.7c-0.4,0.2-0.8,0.3-1.3,0.3c-0.7,0-1.3-0.2-1.8-0.5c-0.5-0.3-0.9-0.8-1.2-1.3
		c-0.3-0.6-0.4-1.2-0.4-2c0-0.9,0.1-1.6,0.4-2.2c0.3-0.6,0.7-1.1,1.2-1.5c0.5-0.3,1.1-0.5,1.8-0.5c0.9,0,1.6,0.3,2,0.8
		c0.5,0.5,0.7,1.3,0.7,2.4H62c0,0.3-0.1,0.6-0.1,0.9c0,0.6,0.1,1.2,0.3,1.7c0.2,0.5,0.5,0.9,0.8,1.1c0.3,0.3,0.7,0.4,1.1,0.4
		c1,0,1.7-0.5,2.2-1.5l0.3,0.1C66.5,10.1,66.3,10.5,66.1,10.8 M65,5.4c-0.1-0.4-0.3-0.7-0.5-1C64.3,4.2,64.1,4,63.8,4
		c-0.3,0-0.6,0.1-0.8,0.3c-0.3,0.2-0.5,0.5-0.6,0.9c-0.2,0.4-0.3,0.9-0.3,1.5h3.2C65.2,6.2,65.1,5.8,65,5.4"/>
	<path d="M71.6,4.4c-0.2-0.2-0.6-0.3-1-0.3c-0.7,0-1.2,0.2-1.5,0.5c0.2,0,0.4,0.2,0.5,0.3c0.1,0.2,0.2,0.4,0.2,0.6
		c0,0.2-0.1,0.4-0.2,0.6c-0.2,0.1-0.4,0.2-0.6,0.2c-0.2,0-0.4-0.1-0.6-0.3c-0.1-0.2-0.2-0.4-0.2-0.7c0-0.4,0.2-0.7,0.7-1.1
		c0.2-0.2,0.5-0.3,0.9-0.4c0.4-0.1,0.7-0.2,1.2-0.2c0.4,0,0.8,0,1.1,0.1c0.3,0.1,0.5,0.2,0.7,0.4c0.2,0.2,0.4,0.5,0.5,0.8
		c0.1,0.3,0.1,0.7,0.1,1.3v4.1c0,0.2,0,0.4,0.1,0.5c0.1,0.1,0.2,0.2,0.3,0.2c0.1,0,0.2,0,0.3-0.1c0.1-0.1,0.2-0.1,0.3-0.2l0.2,0.3
		c-0.2,0.1-0.3,0.2-0.4,0.3c-0.1,0.1-0.2,0.1-0.4,0.2c-0.1,0-0.3,0.1-0.5,0.1c-0.5,0-0.8-0.1-1-0.4c-0.2-0.2-0.3-0.6-0.3-1
		c-0.3,0.5-0.6,0.8-1,1c-0.4,0.2-0.8,0.3-1.2,0.3c-0.3,0-0.7-0.1-0.9-0.2c-0.3-0.1-0.5-0.3-0.7-0.5c-0.2-0.2-0.3-0.6-0.3-0.9
		c0-0.4,0.1-0.7,0.3-1c0.2-0.3,0.4-0.5,0.8-0.7c0.3-0.2,0.8-0.4,1.3-0.7c0.1,0,0.3-0.1,0.7-0.3c0.4-0.2,0.6-0.3,0.8-0.5
		C71.9,6.8,72,6.6,72,6.5V5.5C72,5,71.9,4.6,71.6,4.4 M71.6,7.4c-0.2,0.1-0.5,0.3-1.1,0.5C70.3,8,70,8.2,69.8,8.3
		c-0.2,0.1-0.4,0.3-0.5,0.6c-0.1,0.2-0.2,0.5-0.2,0.9c0,0.4,0.1,0.8,0.3,1c0.2,0.2,0.5,0.3,0.9,0.3c0.7,0,1.2-0.4,1.7-1.1V7.1
		C71.9,7.2,71.8,7.3,71.6,7.4"/>
	<path d="M78.5,4.2c0.4-0.3,0.9-0.4,1.5-0.4c0.7,0,1.2,0.2,1.6,0.6c0.2,0.2,0.3,0.5,0.4,0.7c0.1,0.3,0.1,0.7,0.1,1.2v3.9
		c0,0.3,0,0.5,0.1,0.6c0.1,0.2,0.2,0.3,0.4,0.3c0.2,0.1,0.4,0.1,0.7,0.1v0.3c-0.9,0-1.5-0.1-1.8-0.1c-0.3,0-0.8,0-1.6,0.1v-0.3
		c0.2,0,0.4,0,0.6-0.1c0.1-0.1,0.2-0.2,0.3-0.3c0.1-0.2,0.1-0.4,0.1-0.6V5.9c0-0.4,0-0.7-0.1-0.9c-0.1-0.2-0.2-0.4-0.3-0.6
		c-0.2-0.1-0.4-0.2-0.8-0.2c-0.4,0-0.8,0.1-1.1,0.4c-0.3,0.2-0.6,0.6-0.7,1c-0.2,0.4-0.3,0.9-0.3,1.4v3.3c0,0.3,0,0.5,0.1,0.6
		c0.1,0.2,0.2,0.3,0.3,0.3c0.1,0.1,0.3,0.1,0.6,0.1v0.3c-0.8,0-1.4-0.1-1.7-0.1c-0.3,0-0.9,0-1.8,0.1v-0.3c0.3,0,0.5,0,0.7-0.1
		c0.2-0.1,0.3-0.2,0.4-0.3c0.1-0.2,0.1-0.4,0.1-0.6V5.6c0-0.5-0.1-0.8-0.2-1c-0.2-0.2-0.5-0.3-0.9-0.3V4c0.3,0,0.6,0,0.9,0
		c0.6,0,1.1-0.1,1.5-0.2v1.7C77.7,4.9,78.1,4.5,78.5,4.2"/>
	<path d="M92.5,11.6c-0.2,0.1-0.5,0.2-0.9,0.2c-0.4,0-0.7-0.1-1-0.4c-0.3-0.2-0.5-0.7-0.6-1.2l-0.3-1.5c-0.1-0.5-0.2-0.9-0.3-1.2
		c-0.1-0.3-0.3-0.5-0.5-0.7c-0.2-0.2-0.5-0.2-0.9-0.2h-1.4V10c0,0.4,0,0.6,0.1,0.8c0.1,0.2,0.2,0.3,0.3,0.3c0.2,0.1,0.4,0.1,0.8,0.1
		v0.3c-0.5,0-1.1,0-1.9,0c-0.8,0-1.5,0-1.9,0v-0.3c0.4,0,0.6-0.1,0.8-0.1c0.2-0.1,0.3-0.2,0.3-0.3c0.1-0.2,0.1-0.4,0.1-0.8V2.7
		c0-0.4,0-0.6-0.1-0.8c-0.1-0.2-0.2-0.3-0.3-0.3c-0.2-0.1-0.4-0.1-0.8-0.1V1.1c0.4,0,1,0,1.8,0c0.4,0,0.8,0,1.3,0c0.5,0,0.8,0,1,0
		c0.8,0,1.4,0.1,2,0.3c0.5,0.2,0.9,0.5,1.2,0.9c0.3,0.4,0.4,0.8,0.4,1.3c0,0.4-0.1,0.8-0.3,1.2c-0.2,0.4-0.5,0.7-0.9,1.1
		c-0.4,0.3-1,0.5-1.7,0.6l0.2,0c0.4,0.1,0.8,0.2,1.1,0.3c0.3,0.1,0.5,0.3,0.6,0.6c0.2,0.3,0.3,0.6,0.4,1l0.4,1.5
		c0.1,0.3,0.1,0.5,0.2,0.7c0.1,0.2,0.1,0.3,0.2,0.4c0.1,0.1,0.2,0.1,0.3,0.1c0.2,0,0.3,0,0.4-0.1c0.1-0.1,0.2-0.2,0.4-0.4l0.2,0.2
		C92.9,11.2,92.7,11.4,92.5,11.6 M89.1,6c0.4-0.2,0.6-0.5,0.8-0.8c0.1-0.4,0.2-0.8,0.2-1.3c0-0.8-0.2-1.4-0.6-1.8
		c-0.4-0.4-1-0.6-1.9-0.6c-0.3,0-0.5,0-0.7,0.1c-0.2,0.1-0.3,0.2-0.3,0.4c-0.1,0.2-0.1,0.4-0.1,0.8v3.6h1C88.3,6.3,88.8,6.2,89.1,6"
		/>
	<path d="M96,10.8c0.1,0.2,0.2,0.3,0.4,0.3c0.2,0.1,0.4,0.1,0.7,0.1v0.3c-0.9,0-1.5-0.1-1.8-0.1c-0.3,0-0.9,0-1.8,0.1v-0.3
		c0.3,0,0.5,0,0.7-0.1c0.2-0.1,0.3-0.2,0.4-0.3c0.1-0.2,0.1-0.4,0.1-0.6V5.6c0-0.5-0.1-0.8-0.2-1c-0.2-0.2-0.5-0.3-0.9-0.3V4
		c0.3,0,0.6,0,0.9,0c0.6,0,1.1-0.1,1.5-0.2v6.4C95.8,10.5,95.9,10.7,96,10.8 M95.5,0.4c0.1,0.1,0.3,0.2,0.3,0.3
		C96,0.9,96,1.1,96,1.2c0,0.2,0,0.3-0.1,0.5C95.8,1.8,95.7,2,95.5,2c-0.1,0.1-0.3,0.1-0.5,0.1c-0.2,0-0.3,0-0.5-0.1
		c-0.1-0.1-0.3-0.2-0.3-0.3c-0.1-0.1-0.1-0.3-0.1-0.5c0-0.2,0-0.3,0.1-0.5c0.1-0.1,0.2-0.3,0.3-0.3c0.1-0.1,0.3-0.1,0.5-0.1
		C95.2,0.3,95.4,0.3,95.5,0.4"/>
	<path d="M103.4,10.7c-0.2,0.3-0.5,0.6-0.9,0.8c-0.4,0.2-0.8,0.3-1.3,0.3c-0.6,0-1.2-0.2-1.7-0.5c-0.5-0.3-0.9-0.8-1.2-1.4
		C98.1,9.3,98,8.7,98,7.9c0-0.8,0.1-1.5,0.4-2.1c0.3-0.6,0.7-1.1,1.2-1.5c0.5-0.3,1.1-0.5,1.8-0.5c0.7,0,1.2,0.2,1.7,0.5
		c0.5,0.3,0.7,0.7,0.7,1.1c0,0.3-0.1,0.5-0.2,0.6c-0.1,0.1-0.3,0.2-0.6,0.2c-0.2,0-0.4-0.1-0.6-0.2c-0.2-0.1-0.2-0.3-0.2-0.5
		c0-0.2,0.1-0.4,0.2-0.5c0.1-0.1,0.3-0.2,0.4-0.3c-0.1-0.2-0.3-0.3-0.5-0.4c-0.3-0.1-0.5-0.2-0.8-0.2c-0.4,0-0.7,0.1-1,0.3
		c-0.3,0.2-0.6,0.6-0.8,1.2c-0.2,0.5-0.3,1.2-0.3,2.1c0,1.2,0.2,2.1,0.6,2.7c0.4,0.6,0.9,0.8,1.5,0.8c0.4,0,0.8-0.1,1.2-0.4
		c0.4-0.2,0.7-0.6,0.9-1.2l0.3,0.1C103.8,10.1,103.7,10.4,103.4,10.7"/>
	<path d="M108.2,4.2c0.4-0.3,0.9-0.4,1.5-0.4c0.7,0,1.2,0.2,1.6,0.6c0.2,0.2,0.3,0.5,0.4,0.7c0.1,0.3,0.1,0.7,0.1,1.2v3.9
		c0,0.3,0,0.5,0.1,0.6c0.1,0.2,0.2,0.3,0.4,0.3c0.2,0.1,0.4,0.1,0.7,0.1v0.3c-0.9,0-1.5-0.1-1.8-0.1c-0.3,0-0.8,0-1.7,0.1v-0.3
		c0.2,0,0.4,0,0.6-0.1c0.1-0.1,0.2-0.2,0.3-0.3c0.1-0.2,0.1-0.4,0.1-0.6V5.9c0-0.4,0-0.7-0.1-0.9c-0.1-0.2-0.2-0.4-0.3-0.6
		c-0.2-0.1-0.4-0.2-0.8-0.2c-0.4,0-0.8,0.1-1.1,0.3c-0.3,0.2-0.6,0.5-0.7,1c-0.2,0.4-0.3,0.9-0.3,1.4v3.3c0,0.3,0,0.5,0.1,0.6
		c0.1,0.2,0.2,0.3,0.3,0.3c0.1,0.1,0.3,0.1,0.6,0.1v0.3c-0.8,0-1.4-0.1-1.6-0.1c-0.3,0-0.9,0-1.8,0.1v-0.3c0.3,0,0.5,0,0.7-0.1
		c0.2-0.1,0.3-0.2,0.4-0.3c0.1-0.2,0.1-0.4,0.1-0.6V1.8c0-0.5-0.1-0.8-0.2-1c-0.2-0.2-0.5-0.3-0.9-0.3V0.2c0.3,0,0.6,0,0.9,0
		c0.6,0,1.1-0.1,1.5-0.2v5.5C107.4,4.9,107.8,4.5,108.2,4.2"/>
	<path d="M117.5,4.4c-0.2-0.2-0.6-0.3-1-0.3c-0.7,0-1.2,0.2-1.5,0.5c0.2,0,0.4,0.2,0.5,0.3c0.1,0.2,0.2,0.4,0.2,0.6
		c0,0.2-0.1,0.4-0.2,0.6c-0.2,0.1-0.4,0.2-0.6,0.2c-0.2,0-0.4-0.1-0.6-0.3c-0.1-0.2-0.2-0.4-0.2-0.7c0-0.4,0.2-0.7,0.7-1.1
		c0.2-0.2,0.5-0.3,0.9-0.4c0.4-0.1,0.7-0.2,1.2-0.2c0.4,0,0.8,0,1.1,0.1c0.3,0.1,0.5,0.2,0.7,0.4c0.2,0.2,0.4,0.5,0.5,0.8
		c0.1,0.3,0.1,0.7,0.1,1.3v4.1c0,0.2,0,0.4,0.1,0.5c0.1,0.1,0.2,0.2,0.3,0.2c0.1,0,0.2,0,0.3-0.1c0.1-0.1,0.2-0.1,0.3-0.2l0.2,0.3
		c-0.2,0.1-0.3,0.2-0.4,0.3c-0.1,0.1-0.2,0.1-0.4,0.2c-0.1,0-0.3,0.1-0.5,0.1c-0.5,0-0.8-0.1-1-0.4c-0.2-0.2-0.3-0.6-0.3-1
		c-0.3,0.5-0.6,0.8-1,1c-0.4,0.2-0.8,0.3-1.2,0.3c-0.3,0-0.7-0.1-0.9-0.2c-0.3-0.1-0.5-0.3-0.7-0.5c-0.2-0.2-0.3-0.6-0.3-0.9
		c0-0.4,0.1-0.7,0.3-1c0.2-0.3,0.4-0.5,0.8-0.7c0.3-0.2,0.8-0.4,1.3-0.7c0.1,0,0.3-0.1,0.7-0.3c0.4-0.2,0.6-0.3,0.8-0.5
		c0.2-0.2,0.2-0.3,0.2-0.5V5.5C117.8,5,117.7,4.6,117.5,4.4 M117.5,7.4c-0.2,0.1-0.5,0.3-1.1,0.5c-0.3,0.1-0.5,0.3-0.7,0.4
		c-0.2,0.1-0.4,0.3-0.5,0.6c-0.1,0.2-0.2,0.5-0.2,0.9c0,0.4,0.1,0.8,0.3,1c0.2,0.2,0.5,0.3,0.9,0.3c0.7,0,1.2-0.4,1.7-1.1V7.1
		C117.8,7.2,117.7,7.3,117.5,7.4"/>
	<path d="M123.8,4.8c0.2-0.3,0.5-0.5,0.7-0.7c0.3-0.2,0.6-0.3,0.9-0.3c0.3,0,0.5,0.1,0.7,0.2c0.2,0.1,0.4,0.2,0.5,0.4
		c0.1,0.2,0.2,0.4,0.2,0.6c0,0.3-0.1,0.5-0.2,0.7c-0.2,0.2-0.4,0.3-0.6,0.3c-0.2,0-0.4-0.1-0.6-0.2s-0.2-0.3-0.2-0.6
		c0-0.3,0.2-0.6,0.5-0.8c-0.1-0.1-0.2-0.1-0.3-0.1c-0.4,0-0.7,0.1-1.1,0.4c-0.3,0.3-0.6,0.7-0.7,1.1c-0.2,0.4-0.3,0.8-0.3,1.2V10
		c0,0.5,0.1,0.8,0.4,0.9c0.3,0.2,0.7,0.3,1.2,0.3v0.3c-1.2,0-2-0.1-2.3-0.1c-0.3,0-0.8,0-1.7,0.1v-0.3c0.3,0,0.5,0,0.7-0.1
		c0.2-0.1,0.3-0.2,0.4-0.3c0.1-0.2,0.1-0.4,0.1-0.6V5.6c0-0.5-0.1-0.8-0.2-1c-0.2-0.2-0.5-0.3-0.9-0.3V4c0.3,0,0.6,0,0.9,0
		c0.6,0,1.1-0.1,1.5-0.2v1.8C123.5,5.3,123.6,5,123.8,4.8"/>
	<path d="M134.1,11c0.2,0.2,0.5,0.3,0.9,0.3v0.3c-0.3,0-0.6,0-0.9,0c-0.6,0-1.1,0.1-1.5,0.2v-1.3c-0.2,0.4-0.5,0.8-0.8,1
		c-0.4,0.2-0.8,0.3-1.3,0.3c-0.6,0-1.2-0.1-1.6-0.4c-0.5-0.3-0.8-0.7-1-1.3c-0.2-0.6-0.4-1.3-0.4-2.2c0-0.9,0.1-1.6,0.4-2.2
		c0.3-0.6,0.7-1.1,1.2-1.4c0.5-0.3,1.1-0.5,1.7-0.5c0.4,0,0.7,0.1,1,0.2c0.3,0.1,0.6,0.4,0.7,0.7V1.8c0-0.5-0.1-0.8-0.2-1
		c-0.2-0.2-0.5-0.3-0.9-0.3V0.2c0.3,0,0.6,0,0.9,0c0.6,0,1.1-0.1,1.5-0.2v10C133.9,10.4,134,10.7,134.1,11 M130.9,4.1
		c-0.4,0-0.8,0.1-1.1,0.4c-0.3,0.3-0.5,0.7-0.7,1.2c-0.2,0.5-0.3,1.2-0.3,2c0,1.2,0.2,2.1,0.5,2.7c0.3,0.6,0.8,0.9,1.5,0.9
		c0.3,0,0.5-0.1,0.7-0.2c0.2-0.1,0.4-0.3,0.6-0.6c0.2-0.3,0.3-0.6,0.4-0.9V5.2C132.3,4.5,131.7,4.1,130.9,4.1"/>
</g>
</svg>
