<?xml version="1.0" encoding="utf-8"?>
<!-- Generator: Adobe Illustrator 22.1.0, SVG Export Plug-In . SVG Version: 6.00 Build 0)  -->
<svg version="1.1" xmlns="http://www.w3.org/2000/svg" xmlns:xlink="http://www.w3.org/1999/xlink" x="0px" y="0px"
	 viewBox="0 0 135 14.3" style="enable-background:new 0 0 135 14.3;" xml:space="preserve">
<style type="text/css">
	.st0{display:none;}
	.st1{display:inline;}
	.st2{fill:#666666;}
</style>
<g id="Layer_1" class="st0">
	<g class="st1">
		<g>
			<path class="st2" d="M32.1,14.7c-0.1,0.1-0.2,0.1-0.3,0.3c0,0.1-0.1,0.4-0.1,0.7v6.1c0,0.3,0,0.5,0.1,0.7c0,0.1,0.1,0.2,0.3,0.3
				c0.1,0.1,0.3,0.1,0.6,0.1V23c-0.4,0-0.9,0-1.6,0c-0.7,0-1.2,0-1.6,0v-0.2c0.3,0,0.5,0,0.6-0.1c0.1-0.1,0.2-0.1,0.3-0.3
				c0-0.1,0.1-0.4,0.1-0.7v-6.5l-2.9,7.9h-0.2l-3.1-7.9v6.5c0,0.3,0,0.6,0.1,0.7c0.1,0.2,0.2,0.3,0.3,0.3c0.2,0.1,0.4,0.1,0.7,0.1
				V23c-0.3,0-0.7,0-1.2,0c-0.5,0-0.9,0-1.1,0v-0.2c0.3,0,0.5-0.1,0.6-0.1c0.1-0.1,0.2-0.2,0.3-0.3c0.1-0.2,0.1-0.4,0.1-0.7v-5.9
				c0-0.3,0-0.5-0.1-0.7c0-0.1-0.1-0.2-0.3-0.3c-0.1-0.1-0.3-0.1-0.6-0.1v-0.2c0.3,0,0.6,0,1.1,0c0.4,0,0.8,0,1,0l2.7,7.1l2.6-7.1
				h0.6c0.7,0,1.2,0,1.6,0v0.2C32.4,14.6,32.2,14.7,32.1,14.7"/>
			<path class="st2" d="M38.2,22.4c-0.2,0.2-0.5,0.5-0.8,0.6c-0.3,0.2-0.7,0.2-1,0.2c-0.6,0-1.1-0.1-1.5-0.4c-0.4-0.3-0.7-0.6-1-1.1
				c-0.2-0.5-0.3-1-0.3-1.7c0-0.7,0.1-1.3,0.3-1.8c0.2-0.5,0.5-0.9,1-1.2c0.4-0.3,0.9-0.4,1.5-0.4c0.7,0,1.3,0.2,1.7,0.7
				c0.4,0.4,0.6,1.1,0.6,2h-3.8c0,0.2,0,0.5,0,0.8c0,0.5,0.1,1,0.3,1.4c0.2,0.4,0.4,0.7,0.7,0.9c0.3,0.2,0.6,0.3,0.9,0.3
				c0.8,0,1.4-0.4,1.8-1.2l0.2,0.1C38.6,21.9,38.4,22.1,38.2,22.4 M37.4,17.9c-0.1-0.3-0.2-0.6-0.4-0.8c-0.2-0.2-0.4-0.3-0.7-0.3
				c-0.3,0-0.5,0.1-0.7,0.2c-0.2,0.2-0.4,0.4-0.5,0.7c-0.1,0.3-0.2,0.7-0.3,1.2h2.7C37.5,18.6,37.4,18.3,37.4,17.9"/>
			<path class="st2" d="M41.6,22.4c0.1,0.1,0.2,0.2,0.3,0.3c0.1,0.1,0.3,0.1,0.5,0.1V23c-0.7,0-1.2,0-1.5,0c-0.2,0-0.7,0-1.5,0v-0.3
				c0.2,0,0.4,0,0.5-0.1c0.1-0.1,0.2-0.1,0.3-0.3c0.1-0.1,0.1-0.3,0.1-0.5v-7c0-0.4-0.1-0.7-0.2-0.8c-0.1-0.2-0.4-0.3-0.7-0.3v-0.3
				c0.3,0,0.5,0,0.8,0c0.5,0,0.9-0.1,1.3-0.2v8.5C41.5,22.1,41.5,22.3,41.6,22.4"/>
			<path class="st2" d="M46.3,17.1c-0.2-0.2-0.5-0.3-0.8-0.3c-0.6,0-1,0.1-1.2,0.4c0.2,0,0.3,0.1,0.4,0.3c0.1,0.1,0.2,0.3,0.2,0.5
				c0,0.2-0.1,0.4-0.2,0.5c-0.1,0.1-0.3,0.2-0.5,0.2c-0.2,0-0.4-0.1-0.5-0.2c-0.1-0.1-0.2-0.3-0.2-0.5c0-0.3,0.2-0.6,0.6-0.9
				c0.2-0.1,0.4-0.2,0.7-0.3c0.3-0.1,0.6-0.1,1-0.1c0.3,0,0.6,0,0.9,0.1c0.3,0.1,0.5,0.2,0.6,0.3c0.2,0.2,0.3,0.4,0.4,0.7
				c0.1,0.3,0.1,0.6,0.1,1v3.4c0,0.2,0,0.4,0.1,0.4c0.1,0.1,0.2,0.1,0.3,0.1c0.1,0,0.2,0,0.3-0.1c0.1,0,0.2-0.1,0.3-0.2l0.1,0.2
				c-0.1,0.1-0.3,0.2-0.4,0.3c-0.1,0.1-0.2,0.1-0.3,0.1c-0.1,0-0.3,0.1-0.4,0.1c-0.4,0-0.7-0.1-0.8-0.3c-0.2-0.2-0.2-0.5-0.2-0.8
				c-0.2,0.4-0.5,0.7-0.9,0.8c-0.3,0.2-0.7,0.2-1,0.2c-0.3,0-0.5,0-0.8-0.1c-0.2-0.1-0.4-0.2-0.6-0.5c-0.1-0.2-0.2-0.5-0.2-0.8
				c0-0.3,0.1-0.6,0.2-0.8c0.2-0.2,0.4-0.4,0.6-0.6c0.3-0.2,0.6-0.3,1.1-0.5c0.1,0,0.3-0.1,0.6-0.2c0.3-0.1,0.5-0.3,0.7-0.4
				c0.1-0.1,0.2-0.3,0.2-0.4v-0.8C46.6,17.6,46.5,17.3,46.3,17.1 M46.3,19.6c-0.1,0.1-0.4,0.2-0.9,0.4c-0.2,0.1-0.4,0.2-0.6,0.3
				c-0.2,0.1-0.3,0.3-0.4,0.5c-0.1,0.2-0.2,0.4-0.2,0.7c0,0.4,0.1,0.6,0.3,0.8c0.2,0.2,0.4,0.3,0.7,0.3c0.5,0,1-0.3,1.4-0.9v-2.4
				C46.6,19.4,46.5,19.5,46.3,19.6"/>
			<path class="st2" d="M52,16.9c0.4-0.2,0.8-0.3,1.2-0.3c0.6,0,1,0.2,1.3,0.5c0.2,0.2,0.3,0.4,0.3,0.6c0.1,0.2,0.1,0.6,0.1,1v3.3
				c0,0.2,0,0.4,0.1,0.5c0.1,0.1,0.2,0.2,0.3,0.3c0.1,0.1,0.3,0.1,0.5,0.1V23c-0.7,0-1.2,0-1.5,0c-0.2,0-0.7,0-1.4,0v-0.3
				c0.2,0,0.4,0,0.5-0.1c0.1-0.1,0.2-0.1,0.3-0.3c0.1-0.1,0.1-0.3,0.1-0.5v-3.5c0-0.3,0-0.5-0.1-0.7c0-0.2-0.1-0.4-0.3-0.5
				C53.4,17,53.2,17,52.9,17c-0.3,0-0.6,0.1-0.9,0.3c-0.3,0.2-0.5,0.5-0.6,0.8c-0.1,0.3-0.2,0.7-0.2,1.1v2.7c0,0.2,0,0.4,0.1,0.5
				c0.1,0.1,0.1,0.2,0.3,0.3c0.1,0.1,0.3,0.1,0.5,0.1V23c-0.7,0-1.1,0-1.4,0c-0.2,0-0.7,0-1.5,0v-0.3c0.2,0,0.4,0,0.5-0.1
				c0.1-0.1,0.2-0.1,0.3-0.3c0.1-0.1,0.1-0.3,0.1-0.5v-3.8c0-0.4-0.1-0.7-0.2-0.8c-0.1-0.2-0.4-0.3-0.7-0.3v-0.3c0.3,0,0.5,0,0.8,0
				c0.5,0,0.9-0.1,1.3-0.2v1.4C51.4,17.5,51.7,17.2,52,16.9"/>
			<path class="st2" d="M58.6,22.4c0.1,0.1,0.2,0.2,0.3,0.3c0.1,0.1,0.3,0.1,0.5,0.1V23c-0.7,0-1.2,0-1.5,0c-0.2,0-0.7,0-1.5,0v-0.3
				c0.2,0,0.4,0,0.5-0.1c0.1-0.1,0.2-0.1,0.3-0.3c0.1-0.1,0.1-0.3,0.1-0.5v-3.8c0-0.4-0.1-0.7-0.2-0.8C57,17.1,56.8,17,56.4,17v-0.3
				c0.3,0,0.5,0,0.8,0c0.5,0,0.9-0.1,1.3-0.2v5.3C58.5,22.1,58.5,22.3,58.6,22.4 M58.2,13.8c0.1,0.1,0.2,0.2,0.3,0.3
				c0.1,0.1,0.1,0.2,0.1,0.4c0,0.1,0,0.3-0.1,0.4c-0.1,0.1-0.2,0.2-0.3,0.3c-0.1,0.1-0.2,0.1-0.4,0.1c-0.1,0-0.3,0-0.4-0.1
				c-0.1-0.1-0.2-0.2-0.3-0.3c-0.1-0.1-0.1-0.3-0.1-0.4c0-0.1,0-0.3,0.1-0.4c0.1-0.1,0.2-0.2,0.3-0.3c0.1-0.1,0.3-0.1,0.4-0.1
				C58,13.7,58.1,13.7,58.2,13.8"/>
			<path class="st2" d="M64.9,22.4c-0.2,0.2-0.5,0.5-0.8,0.6c-0.3,0.2-0.7,0.2-1,0.2c-0.6,0-1.1-0.1-1.5-0.4c-0.4-0.3-0.7-0.6-1-1.1
				c-0.2-0.5-0.3-1-0.3-1.7c0-0.7,0.1-1.3,0.3-1.8c0.2-0.5,0.5-0.9,1-1.2c0.4-0.3,0.9-0.4,1.5-0.4c0.7,0,1.3,0.2,1.7,0.7
				c0.4,0.4,0.6,1.1,0.6,2h-3.8c0,0.2,0,0.5,0,0.8c0,0.5,0.1,1,0.3,1.4c0.2,0.4,0.4,0.7,0.7,0.9c0.3,0.2,0.6,0.3,0.9,0.3
				c0.8,0,1.4-0.4,1.8-1.2l0.2,0.1C65.2,21.9,65.1,22.1,64.9,22.4 M64,17.9c-0.1-0.3-0.2-0.6-0.4-0.8c-0.2-0.2-0.4-0.3-0.7-0.3
				c-0.3,0-0.5,0.1-0.7,0.2c-0.2,0.2-0.4,0.4-0.5,0.7c-0.1,0.3-0.2,0.7-0.3,1.2h2.7C64.1,18.6,64.1,18.3,64,17.9"/>
			<path d="M71.8,14.7c-0.1,0.1-0.2,0.1-0.3,0.3c0,0.1-0.1,0.4-0.1,0.7v4.5c0,0.7,0,1.3,0,1.8c0,0.5-0.1,1-0.2,1.3
				c-0.1,0.4-0.3,0.7-0.5,1c-0.2,0.3-0.5,0.5-0.9,0.7c-0.4,0.2-0.8,0.3-1.2,0.3c-0.4,0-0.7-0.1-1-0.2c-0.4-0.2-0.6-0.5-0.6-0.8
				c0-0.2,0.1-0.3,0.2-0.5c0.1-0.1,0.3-0.2,0.5-0.2c0.2,0,0.4,0.1,0.5,0.2c0.1,0.1,0.2,0.3,0.2,0.5c0,0.2,0,0.3-0.1,0.4
				c-0.1,0.1-0.2,0.2-0.4,0.2c0.1,0.1,0.2,0.1,0.3,0.2c0.2,0,0.3,0,0.4,0c0.4,0,0.7-0.1,0.9-0.3c0.3-0.2,0.4-0.4,0.6-0.8
				c0.1-0.3,0.1-0.6,0.2-1c0-0.4,0-1,0-1.8v-5.6c0-0.3,0-0.5-0.1-0.7c0-0.1-0.1-0.2-0.3-0.3c-0.1-0.1-0.3-0.1-0.6-0.1v-0.2
				c0.3,0,0.9,0,1.6,0c0.7,0,1.2,0,1.6,0v0.2C72.2,14.6,72,14.7,71.8,14.7"/>
			<path d="M77.9,22.4c-0.2,0.2-0.5,0.5-0.8,0.6c-0.3,0.2-0.7,0.2-1,0.2c-0.6,0-1.1-0.1-1.5-0.4c-0.4-0.3-0.7-0.6-1-1.1
				c-0.2-0.5-0.3-1-0.3-1.7c0-0.7,0.1-1.3,0.3-1.8c0.2-0.5,0.5-0.9,1-1.2c0.4-0.3,0.9-0.4,1.5-0.4c0.7,0,1.3,0.2,1.7,0.7
				c0.4,0.4,0.6,1.1,0.6,2h-3.8c0,0.2,0,0.5,0,0.8c0,0.5,0.1,1,0.3,1.4c0.2,0.4,0.4,0.7,0.7,0.9c0.3,0.2,0.6,0.3,0.9,0.3
				c0.8,0,1.4-0.4,1.8-1.2l0.2,0.1C78.2,21.9,78.1,22.1,77.9,22.4 M77,17.9c-0.1-0.3-0.2-0.6-0.4-0.8c-0.2-0.2-0.4-0.3-0.7-0.3
				c-0.3,0-0.5,0.1-0.7,0.2c-0.2,0.2-0.4,0.4-0.5,0.7c-0.1,0.3-0.2,0.7-0.3,1.2h2.7C77.1,18.6,77.1,18.3,77,17.9"/>
			<path d="M82.5,17.1c-0.2-0.2-0.5-0.3-0.8-0.3c-0.6,0-1,0.1-1.2,0.4c0.2,0,0.3,0.1,0.4,0.3c0.1,0.1,0.2,0.3,0.2,0.5
				c0,0.2-0.1,0.4-0.2,0.5c-0.1,0.1-0.3,0.2-0.5,0.2c-0.2,0-0.4-0.1-0.5-0.2c-0.1-0.1-0.2-0.3-0.2-0.5c0-0.3,0.2-0.6,0.6-0.9
				c0.2-0.1,0.4-0.2,0.7-0.3c0.3-0.1,0.6-0.1,1-0.1c0.3,0,0.6,0,0.9,0.1c0.3,0.1,0.5,0.2,0.6,0.3c0.2,0.2,0.3,0.4,0.4,0.7
				c0.1,0.3,0.1,0.6,0.1,1v3.4c0,0.2,0,0.4,0.1,0.4c0.1,0.1,0.2,0.1,0.3,0.1c0.1,0,0.2,0,0.3-0.1c0.1,0,0.2-0.1,0.3-0.2l0.1,0.2
				c-0.1,0.1-0.3,0.2-0.4,0.3c-0.1,0.1-0.2,0.1-0.3,0.1c-0.1,0-0.3,0.1-0.4,0.1c-0.4,0-0.7-0.1-0.8-0.3c-0.2-0.2-0.2-0.5-0.2-0.8
				c-0.2,0.4-0.5,0.7-0.9,0.8c-0.3,0.2-0.7,0.2-1,0.2c-0.3,0-0.5,0-0.8-0.1c-0.2-0.1-0.4-0.2-0.6-0.5c-0.1-0.2-0.2-0.5-0.2-0.8
				c0-0.3,0.1-0.6,0.2-0.8c0.2-0.2,0.4-0.4,0.6-0.6c0.3-0.2,0.6-0.3,1.1-0.5c0.1,0,0.3-0.1,0.6-0.2c0.3-0.1,0.5-0.3,0.7-0.4
				c0.1-0.1,0.2-0.3,0.2-0.4v-0.8C82.8,17.6,82.7,17.3,82.5,17.1 M82.5,19.6c-0.1,0.1-0.4,0.2-0.9,0.4c-0.2,0.1-0.4,0.2-0.6,0.3
				c-0.2,0.1-0.3,0.3-0.4,0.5c-0.1,0.2-0.2,0.4-0.2,0.7c0,0.4,0.1,0.6,0.3,0.8c0.2,0.2,0.4,0.3,0.7,0.3c0.5,0,1-0.3,1.4-0.9v-2.4
				C82.7,19.4,82.6,19.5,82.5,19.6"/>
			<path d="M88.2,16.9c0.4-0.2,0.8-0.3,1.2-0.3c0.6,0,1,0.2,1.3,0.5c0.2,0.2,0.3,0.4,0.3,0.6c0.1,0.2,0.1,0.6,0.1,1v3.3
				c0,0.2,0,0.4,0.1,0.5c0.1,0.1,0.2,0.2,0.3,0.3c0.1,0.1,0.3,0.1,0.5,0.1V23c-0.7,0-1.2,0-1.5,0c-0.2,0-0.7,0-1.4,0v-0.3
				c0.2,0,0.4,0,0.5-0.1c0.1-0.1,0.2-0.1,0.3-0.3c0.1-0.1,0.1-0.3,0.1-0.5v-3.5c0-0.3,0-0.5-0.1-0.7c0-0.2-0.1-0.4-0.3-0.5
				C89.5,17,89.3,17,89,17c-0.3,0-0.6,0.1-0.9,0.3c-0.3,0.2-0.5,0.5-0.6,0.8c-0.1,0.3-0.2,0.7-0.2,1.1v2.7c0,0.2,0,0.4,0.1,0.5
				c0.1,0.1,0.1,0.2,0.3,0.3c0.1,0.1,0.3,0.1,0.5,0.1V23c-0.7,0-1.1,0-1.4,0c-0.2,0-0.7,0-1.5,0v-0.3c0.2,0,0.4,0,0.5-0.1
				c0.1-0.1,0.2-0.1,0.3-0.3c0.1-0.1,0.1-0.3,0.1-0.5v-3.8c0-0.4-0.1-0.7-0.2-0.8c-0.1-0.2-0.4-0.3-0.7-0.3v-0.3c0.3,0,0.5,0,0.8,0
				c0.5,0,0.9-0.1,1.3-0.2v1.4C87.5,17.5,87.8,17.2,88.2,16.9"/>
			<path d="M99.7,23c-0.2,0.1-0.4,0.2-0.7,0.2c-0.3,0-0.6-0.1-0.8-0.3c-0.2-0.2-0.4-0.5-0.5-1l-0.3-1.2c-0.1-0.4-0.2-0.8-0.3-1
				c-0.1-0.2-0.2-0.4-0.4-0.5c-0.2-0.1-0.4-0.2-0.7-0.2h-1.2v2.8c0,0.3,0,0.5,0.1,0.7c0,0.1,0.1,0.2,0.3,0.3
				c0.1,0.1,0.3,0.1,0.6,0.1V23c-0.4,0-0.9,0-1.6,0c-0.7,0-1.2,0-1.6,0v-0.2c0.3,0,0.5,0,0.6-0.1c0.1-0.1,0.2-0.1,0.3-0.3
				c0-0.1,0.1-0.4,0.1-0.7v-6.1c0-0.3,0-0.5-0.1-0.7c0-0.1-0.1-0.2-0.3-0.3c-0.1-0.1-0.3-0.1-0.6-0.1v-0.2c0.3,0,0.8,0,1.5,0
				c0.3,0,0.7,0,1.1,0c0.4,0,0.6,0,0.8,0c0.6,0,1.2,0.1,1.6,0.3c0.4,0.2,0.8,0.4,1,0.8c0.2,0.3,0.3,0.7,0.3,1.1c0,0.3-0.1,0.6-0.2,1
				c-0.1,0.3-0.4,0.6-0.8,0.9c-0.4,0.3-0.8,0.4-1.4,0.5l0.1,0c0.4,0.1,0.7,0.2,0.9,0.3c0.2,0.1,0.4,0.3,0.5,0.5
				c0.1,0.2,0.2,0.5,0.3,0.8l0.3,1.2c0.1,0.3,0.1,0.4,0.2,0.6c0.1,0.1,0.1,0.2,0.2,0.3c0.1,0.1,0.2,0.1,0.3,0.1c0.1,0,0.2,0,0.3-0.1
				c0.1-0.1,0.2-0.2,0.3-0.4l0.2,0.1C100.1,22.7,99.9,22.9,99.7,23 M97,18.4c0.3-0.2,0.5-0.4,0.6-0.7c0.1-0.3,0.2-0.6,0.2-1.1
				c0-0.7-0.2-1.2-0.5-1.5c-0.3-0.3-0.8-0.5-1.6-0.5c-0.3,0-0.4,0-0.6,0.1C95.1,14.8,95,14.9,95,15c0,0.1-0.1,0.4-0.1,0.7v3h0.8
				C96.3,18.7,96.7,18.6,97,18.4"/>
			<path d="M102.6,22.4c0.1,0.1,0.2,0.2,0.3,0.3c0.1,0.1,0.3,0.1,0.5,0.1V23c-0.7,0-1.2,0-1.5,0c-0.2,0-0.7,0-1.5,0v-0.3
				c0.2,0,0.4,0,0.5-0.1c0.1-0.1,0.2-0.1,0.3-0.3c0.1-0.1,0.1-0.3,0.1-0.5v-3.8c0-0.4-0.1-0.7-0.2-0.8c-0.1-0.2-0.4-0.3-0.7-0.3
				v-0.3c0.3,0,0.5,0,0.8,0c0.5,0,0.9-0.1,1.3-0.2v5.3C102.5,22.1,102.6,22.3,102.6,22.4 M102.3,13.8c0.1,0.1,0.2,0.2,0.3,0.3
				c0.1,0.1,0.1,0.2,0.1,0.4c0,0.1,0,0.3-0.1,0.4c-0.1,0.1-0.2,0.2-0.3,0.3c-0.1,0.1-0.2,0.1-0.4,0.1c-0.1,0-0.3,0-0.4-0.1
				c-0.1-0.1-0.2-0.2-0.3-0.3c-0.1-0.1-0.1-0.3-0.1-0.4c0-0.1,0-0.3,0.1-0.4c0.1-0.1,0.2-0.2,0.3-0.3c0.1-0.1,0.3-0.1,0.4-0.1
				C102.1,13.7,102.2,13.7,102.3,13.8"/>
			<path d="M108.8,22.3c-0.2,0.3-0.4,0.5-0.7,0.6c-0.3,0.2-0.7,0.2-1.1,0.2c-0.5,0-1-0.1-1.4-0.4c-0.4-0.3-0.7-0.6-1-1.1
				c-0.2-0.5-0.4-1.1-0.4-1.7c0-0.7,0.1-1.2,0.4-1.8c0.2-0.5,0.6-0.9,1-1.2c0.4-0.3,0.9-0.4,1.5-0.4c0.5,0,1,0.1,1.4,0.4
				c0.4,0.3,0.6,0.6,0.6,0.9c0,0.2-0.1,0.4-0.2,0.5c-0.1,0.1-0.3,0.2-0.5,0.2c-0.2,0-0.4-0.1-0.5-0.2c-0.1-0.1-0.2-0.3-0.2-0.5
				c0-0.2,0-0.3,0.1-0.4c0.1-0.1,0.2-0.2,0.4-0.2c-0.1-0.1-0.2-0.3-0.4-0.4c-0.2-0.1-0.4-0.1-0.7-0.1c-0.3,0-0.6,0.1-0.8,0.3
				c-0.3,0.2-0.5,0.5-0.7,1c-0.2,0.4-0.3,1-0.3,1.8c0,1,0.2,1.8,0.5,2.2c0.3,0.5,0.8,0.7,1.3,0.7c0.3,0,0.7-0.1,1-0.3
				c0.3-0.2,0.6-0.5,0.8-1l0.2,0.1C109.2,21.8,109,22.1,108.8,22.3"/>
			<path d="M112.8,16.9c0.4-0.2,0.8-0.3,1.2-0.3c0.6,0,1,0.2,1.3,0.5c0.2,0.2,0.3,0.4,0.3,0.6c0.1,0.2,0.1,0.6,0.1,1v3.3
				c0,0.2,0,0.4,0.1,0.5c0.1,0.1,0.2,0.2,0.3,0.3c0.1,0.1,0.3,0.1,0.5,0.1V23c-0.8,0-1.3,0-1.5,0c-0.2,0-0.7,0-1.4,0v-0.3
				c0.2,0,0.4,0,0.5-0.1c0.1-0.1,0.2-0.1,0.3-0.3c0.1-0.1,0.1-0.3,0.1-0.5v-3.5c0-0.3,0-0.5-0.1-0.7c0-0.2-0.1-0.4-0.3-0.5
				c-0.1-0.1-0.4-0.2-0.6-0.2c-0.3,0-0.6,0.1-0.9,0.3c-0.3,0.2-0.5,0.5-0.6,0.8c-0.1,0.3-0.2,0.7-0.2,1.1v2.7c0,0.2,0,0.4,0.1,0.5
				c0.1,0.1,0.1,0.2,0.3,0.3c0.1,0.1,0.3,0.1,0.5,0.1V23c-0.7,0-1.1,0-1.4,0c-0.2,0-0.7,0-1.5,0v-0.3c0.2,0,0.4,0,0.5-0.1
				c0.1-0.1,0.2-0.1,0.3-0.3c0.1-0.1,0.1-0.3,0.1-0.5v-7c0-0.4-0.1-0.7-0.2-0.8c-0.1-0.2-0.4-0.3-0.7-0.3v-0.3c0.3,0,0.5,0,0.8,0
				c0.5,0,0.9-0.1,1.3-0.2V18C112.2,17.5,112.4,17.1,112.8,16.9"/>
			<path d="M120.5,17.1c-0.2-0.2-0.5-0.3-0.8-0.3c-0.6,0-1,0.1-1.2,0.4c0.2,0,0.3,0.1,0.4,0.3c0.1,0.1,0.2,0.3,0.2,0.5
				c0,0.2-0.1,0.4-0.2,0.5c-0.1,0.1-0.3,0.2-0.5,0.2c-0.2,0-0.4-0.1-0.5-0.2c-0.1-0.1-0.2-0.3-0.2-0.5c0-0.3,0.2-0.6,0.6-0.9
				c0.2-0.1,0.4-0.2,0.7-0.3c0.3-0.1,0.6-0.1,1-0.1c0.3,0,0.6,0,0.9,0.1c0.3,0.1,0.5,0.2,0.6,0.3c0.2,0.2,0.3,0.4,0.4,0.7
				c0.1,0.3,0.1,0.6,0.1,1v3.4c0,0.2,0,0.4,0.1,0.4c0.1,0.1,0.2,0.1,0.3,0.1c0.1,0,0.2,0,0.3-0.1c0.1,0,0.2-0.1,0.3-0.2l0.1,0.2
				c-0.1,0.1-0.3,0.2-0.4,0.3c-0.1,0.1-0.2,0.1-0.3,0.1c-0.1,0-0.3,0.1-0.4,0.1c-0.4,0-0.7-0.1-0.8-0.3c-0.2-0.2-0.2-0.5-0.2-0.8
				c-0.2,0.4-0.5,0.7-0.9,0.8c-0.3,0.2-0.7,0.2-1,0.2c-0.3,0-0.5,0-0.8-0.1c-0.2-0.1-0.4-0.2-0.6-0.5c-0.1-0.2-0.2-0.5-0.2-0.8
				c0-0.3,0.1-0.6,0.2-0.8c0.2-0.2,0.4-0.4,0.6-0.6c0.3-0.2,0.6-0.3,1.1-0.5c0.1,0,0.3-0.1,0.6-0.2c0.3-0.1,0.5-0.3,0.7-0.4
				c0.1-0.1,0.2-0.3,0.2-0.4v-0.8C120.8,17.6,120.7,17.3,120.5,17.1 M120.5,19.6c-0.1,0.1-0.4,0.2-0.9,0.4c-0.2,0.1-0.4,0.2-0.6,0.3
				c-0.2,0.1-0.3,0.3-0.4,0.5c-0.1,0.2-0.2,0.4-0.2,0.7c0,0.4,0.1,0.6,0.3,0.8c0.2,0.2,0.4,0.3,0.7,0.3c0.5,0,1-0.3,1.4-0.9v-2.4
				C120.7,19.4,120.6,19.5,120.5,19.6"/>
			<path d="M125.7,17.4c0.2-0.2,0.4-0.4,0.6-0.6c0.2-0.2,0.5-0.2,0.8-0.2c0.2,0,0.4,0,0.6,0.1c0.2,0.1,0.3,0.2,0.4,0.3
				c0.1,0.1,0.1,0.3,0.1,0.5c0,0.2-0.1,0.4-0.2,0.5c-0.1,0.1-0.3,0.2-0.5,0.2c-0.2,0-0.3-0.1-0.5-0.2c-0.1-0.1-0.2-0.3-0.2-0.5
				c0-0.3,0.1-0.5,0.4-0.7c-0.1-0.1-0.1-0.1-0.3-0.1c-0.3,0-0.6,0.1-0.9,0.4c-0.3,0.2-0.5,0.6-0.6,0.9c-0.1,0.4-0.2,0.7-0.2,1v2.6
				c0,0.4,0.1,0.6,0.3,0.8c0.2,0.1,0.5,0.2,1,0.2V23c-1,0-1.6,0-1.9,0c-0.2,0-0.7,0-1.4,0v-0.3c0.2,0,0.4,0,0.5-0.1
				c0.1-0.1,0.2-0.1,0.3-0.3c0.1-0.1,0.1-0.3,0.1-0.5v-3.8c0-0.4-0.1-0.7-0.2-0.8c-0.1-0.2-0.4-0.3-0.7-0.3v-0.3c0.3,0,0.5,0,0.8,0
				c0.5,0,0.9-0.1,1.3-0.2v1.5C125.4,17.9,125.6,17.6,125.7,17.4"/>
			<path d="M134.3,22.5c0.1,0.2,0.4,0.3,0.7,0.3V23c-0.3,0-0.5,0-0.8,0c-0.5,0-0.9,0.1-1.3,0.2v-1.1c-0.2,0.4-0.4,0.6-0.7,0.8
				c-0.3,0.2-0.6,0.3-1.1,0.3c-0.5,0-1-0.1-1.3-0.4c-0.4-0.2-0.7-0.6-0.9-1.1c-0.2-0.5-0.3-1.1-0.3-1.8c0-0.7,0.1-1.3,0.4-1.8
				c0.3-0.5,0.6-0.9,1-1.1c0.4-0.3,0.9-0.4,1.4-0.4c0.3,0,0.6,0.1,0.9,0.2c0.3,0.1,0.5,0.3,0.6,0.5v-2.4c0-0.4-0.1-0.7-0.2-0.8
				c-0.1-0.2-0.4-0.3-0.7-0.3v-0.3c0.3,0,0.5,0,0.8,0c0.5,0,0.9-0.1,1.3-0.2v8.3C134.1,22.1,134.1,22.4,134.3,22.5 M131.6,16.9
				c-0.3,0-0.6,0.1-0.9,0.3c-0.3,0.2-0.5,0.6-0.6,1c-0.1,0.5-0.2,1-0.2,1.7c0,1,0.1,1.7,0.4,2.2c0.3,0.5,0.7,0.7,1.2,0.7
				c0.2,0,0.4-0.1,0.6-0.2c0.2-0.1,0.4-0.3,0.5-0.5c0.1-0.2,0.2-0.5,0.3-0.8v-3.6C132.8,17.2,132.3,16.9,131.6,16.9"/>
		</g>
		<g>
			<path class="st2" d="M15.7-6.8c-0.2,0.1-0.4,0.3-0.5,0.5c-0.1,0.2-0.1,0.6-0.1,1.2V5.8c0,0.5,0,0.9,0.1,1.2
				c0.1,0.3,0.3,0.4,0.5,0.5c0.2,0.1,0.6,0.1,1.2,0.2v0.4c-0.7,0-1.6-0.1-2.8-0.1c-1.3,0-2.2,0-2.8,0.1V7.7c0.5,0,0.9-0.1,1.1-0.2
				c0.2-0.1,0.4-0.3,0.5-0.5C13,6.7,13,6.3,13,5.8V-5.9L7.8,8.2H7.4L1.9-6V5.6c0,0.6,0,1,0.1,1.3c0.1,0.3,0.3,0.5,0.6,0.6
				c0.3,0.1,0.7,0.2,1.3,0.2v0.4C3.4,8.1,2.6,8,1.6,8c-0.9,0-1.5,0-2,0.1V7.7c0.5,0,0.9-0.1,1.1-0.2C1,7.3,1.2,7.1,1.2,6.8
				c0.1-0.3,0.1-0.7,0.1-1.3V-5.1c0-0.5,0-0.9-0.1-1.2C1.2-6.5,1-6.7,0.8-6.8C0.5-6.9,0.1-6.9-0.4-7v-0.4c0.5,0,1.2,0.1,2,0.1
				c0.8,0,1.4,0,1.9-0.1L8.3,5.3L13-7.3h1c1.2,0,2.1,0,2.8-0.1V-7C16.3-6.9,15.9-6.9,15.7-6.8"/>
			<path d="M22.1-2c-0.2,0.1-0.4,0.3-0.5,0.5c-0.1,0.2-0.1,0.6-0.1,1.2v8c0,1.2,0,2.3-0.1,3.3c0,1-0.1,1.8-0.3,2.4
				c-0.2,0.7-0.5,1.3-0.9,1.8c-0.4,0.5-0.9,1-1.6,1.3c-0.6,0.3-1.4,0.5-2.2,0.5c-0.7,0-1.3-0.1-1.8-0.4c-0.7-0.4-1-0.9-1-1.5
				c0-0.3,0.1-0.6,0.3-0.8c0.2-0.2,0.5-0.3,0.8-0.3c0.3,0,0.6,0.1,0.9,0.3c0.2,0.2,0.3,0.5,0.3,0.9c0,0.3-0.1,0.6-0.2,0.7
				c-0.2,0.2-0.4,0.3-0.7,0.4c0.1,0.1,0.3,0.2,0.6,0.3c0.3,0.1,0.5,0.1,0.8,0.1c0.6,0,1.2-0.2,1.6-0.5c0.5-0.3,0.8-0.8,1-1.4
				c0.1-0.5,0.2-1,0.3-1.7c0-0.7,0.1-1.8,0.1-3.3v-10c0-0.5,0-0.9-0.1-1.2c-0.1-0.2-0.3-0.4-0.5-0.5c-0.2-0.1-0.6-0.1-1.2-0.2v-0.4
				c0.6,0,1.5,0.1,2.8,0.1c1.2,0,2.1,0,2.7,0l0,0.4C22.8-2.1,22.4-2.1,22.1-2"/>
			<path d="M35.7,12.9c-0.3,0.2-0.8,0.3-1.3,0.3c-0.6,0-1.1-0.2-1.5-0.5c-0.4-0.3-0.7-1-0.9-1.9l-0.5-2.2c-0.2-0.8-0.3-1.3-0.5-1.8
				c-0.2-0.4-0.4-0.7-0.7-1c-0.3-0.2-0.7-0.4-1.3-0.4H27v5c0,0.5,0,0.9,0.1,1.2c0.1,0.3,0.3,0.4,0.5,0.5c0.2,0.1,0.6,0.1,1.2,0.2
				v0.4c-0.7,0-1.6-0.1-2.8-0.1c-1.3,0-2.2,0-2.8,0.1v-0.4c0.5,0,0.9-0.1,1.2-0.2c0.2-0.1,0.4-0.3,0.5-0.5c0.1-0.2,0.1-0.6,0.1-1.2
				V-0.3c0-0.5,0-0.9-0.1-1.2c-0.1-0.2-0.3-0.4-0.5-0.5c-0.2-0.1-0.6-0.1-1.2-0.2l0-0.4c0.6,0,1.5,0,2.6,0c0.6,0,1.2,0,1.9,0
				c0.7,0,1.2,0,1.4,0c1.1,0,2.1,0.2,2.9,0.5c0.8,0.3,1.4,0.8,1.8,1.4c0.4,0.6,0.6,1.2,0.6,2c0,0.6-0.1,1.1-0.4,1.7
				c-0.3,0.6-0.7,1.1-1.4,1.6c-0.6,0.5-1.5,0.8-2.5,0.9l0.3,0c0.7,0.1,1.2,0.3,1.6,0.5c0.4,0.2,0.7,0.5,0.9,0.9
				c0.2,0.4,0.4,0.9,0.6,1.5l0.5,2.2c0.1,0.4,0.2,0.8,0.3,1.1c0.1,0.3,0.2,0.4,0.3,0.6c0.1,0.1,0.3,0.2,0.5,0.2
				c0.2,0,0.4-0.1,0.6-0.2c0.2-0.1,0.4-0.3,0.6-0.6l0.3,0.2C36.4,12.3,36.1,12.7,35.7,12.9 M30.8,4.7c0.6-0.3,0.9-0.7,1.2-1.3
				c0.2-0.5,0.3-1.2,0.3-1.9c0-1.2-0.3-2.1-0.9-2.7c-0.6-0.6-1.5-0.9-2.8-0.9c-0.5,0-0.8,0.1-1,0.2c-0.2,0.1-0.4,0.3-0.5,0.6
				C27.1-1.2,27-0.8,27-0.3v5.4h1.5C29.5,5.1,30.3,5,30.8,4.7"/>
		</g>
	</g>
</g>
<g id="Layer_2">
	<g>
		<path d="M10.8,1.5c-0.2,0.1-0.3,0.2-0.3,0.3c-0.1,0.2-0.1,0.4-0.1,0.8V10c0,0.4,0,0.6,0.1,0.8c0.1,0.2,0.2,0.3,0.3,0.3
			c0.2,0.1,0.4,0.1,0.8,0.1v0.3c-0.5,0-1.1,0-1.9,0c-0.8,0-1.5,0-1.9,0v-0.3c0.4,0,0.6-0.1,0.8-0.1c0.2-0.1,0.3-0.2,0.3-0.3
			C9,10.6,9,10.4,9,10V2.1l-3.6,9.5H5.3L1.5,2.1v7.8c0,0.4,0,0.7,0.1,0.9C1.7,10.9,1.8,11,2,11.1c0.2,0.1,0.5,0.1,0.9,0.1v0.3
			c-0.4,0-0.9,0-1.5,0c-0.6,0-1,0-1.4,0v-0.3c0.3,0,0.6-0.1,0.8-0.1C0.9,11,1,10.9,1.1,10.7c0.1-0.2,0.1-0.5,0.1-0.9V2.7
			c0-0.4,0-0.6-0.1-0.8C1,1.7,0.9,1.6,0.8,1.5C0.6,1.5,0.4,1.4,0,1.4V1.1c0.3,0,0.8,0,1.4,0c0.5,0,0.9,0,1.3,0l3.2,8.6L9,1.2h0.7
			c0.8,0,1.4,0,1.9,0v0.3C11.3,1.4,11,1.5,10.8,1.5"/>
		<path d="M18.2,10.8c-0.3,0.3-0.6,0.5-0.9,0.7c-0.4,0.2-0.8,0.3-1.3,0.3c-0.7,0-1.3-0.2-1.8-0.5c-0.5-0.3-0.9-0.8-1.2-1.3
			c-0.3-0.6-0.4-1.2-0.4-2c0-0.9,0.1-1.6,0.4-2.2c0.3-0.6,0.7-1.1,1.2-1.5c0.5-0.3,1.1-0.5,1.8-0.5c0.9,0,1.6,0.3,2,0.8
			c0.5,0.5,0.7,1.3,0.7,2.4h-4.6c0,0.3-0.1,0.6-0.1,0.9c0,0.6,0.1,1.2,0.3,1.7c0.2,0.5,0.5,0.9,0.8,1.1c0.3,0.3,0.7,0.4,1.1,0.4
			c1,0,1.7-0.5,2.2-1.5l0.3,0.1C18.7,10.1,18.5,10.5,18.2,10.8 M17.2,5.4c-0.1-0.4-0.3-0.7-0.5-1C16.5,4.2,16.2,4,15.9,4
			c-0.3,0-0.6,0.1-0.8,0.3c-0.3,0.2-0.5,0.5-0.6,0.9c-0.2,0.4-0.3,0.9-0.3,1.5h3.2C17.3,6.2,17.3,5.8,17.2,5.4"/>
		<path d="M22.3,10.8c0.1,0.2,0.2,0.3,0.4,0.3c0.2,0.1,0.4,0.1,0.7,0.1v0.3c-0.9,0-1.5-0.1-1.8-0.1c-0.3,0-0.9,0-1.8,0.1v-0.3
			c0.3,0,0.5,0,0.7-0.1c0.2-0.1,0.3-0.2,0.4-0.3c0.1-0.2,0.1-0.4,0.1-0.6V1.8c0-0.5-0.1-0.8-0.2-1c-0.2-0.2-0.5-0.3-0.9-0.3V0.2
			c0.3,0,0.6,0,0.9,0c0.6,0,1.1-0.1,1.5-0.2v10.2C22.2,10.5,22.2,10.7,22.3,10.8"/>
		<path d="M28,4.4c-0.2-0.2-0.6-0.3-1-0.3c-0.7,0-1.2,0.2-1.5,0.5c0.2,0,0.4,0.2,0.5,0.3c0.1,0.2,0.2,0.4,0.2,0.6
			c0,0.2-0.1,0.4-0.2,0.6c-0.2,0.1-0.4,0.2-0.6,0.2c-0.2,0-0.4-0.1-0.6-0.3c-0.1-0.2-0.2-0.4-0.2-0.7c0-0.4,0.2-0.7,0.7-1.1
			c0.2-0.2,0.5-0.3,0.9-0.4c0.4-0.1,0.7-0.2,1.2-0.2c0.4,0,0.8,0,1.1,0.1c0.3,0.1,0.5,0.2,0.7,0.4c0.2,0.2,0.4,0.5,0.5,0.8
			c0.1,0.3,0.1,0.7,0.1,1.3v4.1c0,0.2,0,0.4,0.1,0.5c0.1,0.1,0.2,0.2,0.3,0.2c0.1,0,0.2,0,0.3-0.1c0.1-0.1,0.2-0.1,0.3-0.2l0.2,0.3
			c-0.2,0.1-0.3,0.2-0.4,0.3c-0.1,0.1-0.2,0.1-0.4,0.2c-0.1,0-0.3,0.1-0.5,0.1c-0.5,0-0.8-0.1-1-0.4c-0.2-0.2-0.3-0.6-0.3-1
			c-0.3,0.5-0.6,0.8-1,1c-0.4,0.2-0.8,0.3-1.2,0.3c-0.3,0-0.7-0.1-0.9-0.2c-0.3-0.1-0.5-0.3-0.7-0.5c-0.2-0.2-0.3-0.6-0.3-0.9
			c0-0.4,0.1-0.7,0.3-1c0.2-0.3,0.4-0.5,0.8-0.7c0.3-0.2,0.8-0.4,1.3-0.7c0.1,0,0.3-0.1,0.7-0.3c0.4-0.2,0.6-0.3,0.8-0.5
			c0.2-0.2,0.2-0.3,0.2-0.5V5.5C28.4,5,28.2,4.6,28,4.4 M28,7.4c-0.2,0.1-0.5,0.3-1.1,0.5c-0.3,0.1-0.5,0.3-0.7,0.4
			c-0.2,0.1-0.4,0.3-0.5,0.6c-0.1,0.2-0.2,0.5-0.2,0.9c0,0.4,0.1,0.8,0.3,1c0.2,0.2,0.5,0.3,0.9,0.3c0.7,0,1.2-0.4,1.7-1.1V7.1
			C28.3,7.2,28.2,7.3,28,7.4"/>
		<path d="M34.9,4.2c0.4-0.3,0.9-0.4,1.5-0.4c0.7,0,1.2,0.2,1.6,0.6c0.2,0.2,0.3,0.5,0.4,0.7c0.1,0.3,0.1,0.7,0.1,1.2v3.9
			c0,0.3,0,0.5,0.1,0.6c0.1,0.2,0.2,0.3,0.4,0.3c0.2,0.1,0.4,0.1,0.7,0.1v0.3c-0.9,0-1.5-0.1-1.8-0.1c-0.3,0-0.8,0-1.6,0.1v-0.3
			c0.2,0,0.4,0,0.6-0.1c0.1-0.1,0.2-0.2,0.3-0.3c0.1-0.2,0.1-0.4,0.1-0.6V5.9c0-0.4,0-0.7-0.1-0.9c-0.1-0.2-0.2-0.4-0.3-0.6
			c-0.2-0.1-0.4-0.2-0.8-0.2c-0.4,0-0.8,0.1-1.1,0.4c-0.3,0.2-0.6,0.6-0.7,1C34,6,33.9,6.4,33.9,6.9v3.3c0,0.3,0,0.5,0.1,0.6
			c0.1,0.2,0.2,0.3,0.3,0.3c0.1,0.1,0.3,0.1,0.6,0.1v0.3c-0.8,0-1.4-0.1-1.7-0.1s-0.9,0-1.8,0.1v-0.3c0.3,0,0.5,0,0.7-0.1
			c0.2-0.1,0.3-0.2,0.4-0.3c0.1-0.2,0.1-0.4,0.1-0.6V5.6c0-0.5-0.1-0.8-0.2-1c-0.2-0.2-0.5-0.3-0.9-0.3V4c0.3,0,0.6,0,0.9,0
			c0.6,0,1.1-0.1,1.5-0.2v1.7C34.1,4.9,34.5,4.5,34.9,4.2"/>
		<path d="M42.8,10.8c0.1,0.2,0.2,0.3,0.4,0.3c0.2,0.1,0.4,0.1,0.7,0.1v0.3c-0.9,0-1.5-0.1-1.8-0.1c-0.3,0-0.9,0-1.8,0.1v-0.3
			c0.3,0,0.5,0,0.7-0.1c0.2-0.1,0.3-0.2,0.4-0.3c0.1-0.2,0.1-0.4,0.1-0.6V5.6c0-0.5-0.1-0.8-0.2-1c-0.2-0.2-0.5-0.3-0.9-0.3V4
			c0.3,0,0.6,0,0.9,0c0.6,0,1.1-0.1,1.5-0.2v6.4C42.7,10.5,42.7,10.7,42.8,10.8 M42.4,0.4c0.1,0.1,0.3,0.2,0.3,0.3
			c0.1,0.1,0.1,0.3,0.1,0.5c0,0.2,0,0.3-0.1,0.5C42.6,1.8,42.5,2,42.4,2c-0.1,0.1-0.3,0.1-0.5,0.1c-0.2,0-0.3,0-0.5-0.1
			c-0.1-0.1-0.3-0.2-0.3-0.3C41,1.5,41,1.4,41,1.2c0-0.2,0-0.3,0.1-0.5c0.1-0.1,0.2-0.3,0.3-0.3c0.1-0.1,0.3-0.1,0.5-0.1
			C42.1,0.3,42.2,0.3,42.4,0.4"/>
		<path d="M50.4,10.8c-0.3,0.3-0.6,0.5-0.9,0.7c-0.4,0.2-0.8,0.3-1.3,0.3c-0.7,0-1.3-0.2-1.8-0.5c-0.5-0.3-0.9-0.8-1.2-1.3
			c-0.3-0.6-0.4-1.2-0.4-2c0-0.9,0.1-1.6,0.4-2.2c0.3-0.6,0.7-1.1,1.2-1.5c0.5-0.3,1.1-0.5,1.8-0.5c0.9,0,1.6,0.3,2,0.8
			c0.5,0.5,0.7,1.3,0.7,2.4h-4.6c0,0.3-0.1,0.6-0.1,0.9c0,0.6,0.1,1.2,0.3,1.7c0.2,0.5,0.5,0.9,0.8,1.1c0.3,0.3,0.7,0.4,1.1,0.4
			c1,0,1.7-0.5,2.2-1.5l0.3,0.1C50.8,10.1,50.6,10.5,50.4,10.8 M49.3,5.4c-0.1-0.4-0.3-0.7-0.5-1C48.7,4.2,48.4,4,48.1,4
			c-0.3,0-0.6,0.1-0.8,0.3c-0.3,0.2-0.5,0.5-0.6,0.9c-0.2,0.4-0.3,0.9-0.3,1.5h3.2C49.5,6.2,49.4,5.8,49.3,5.4"/>
		<path d="M58.8,1.5c-0.2,0.1-0.3,0.2-0.3,0.3c-0.1,0.2-0.1,0.4-0.1,0.8v5.4c0,0.8,0,1.6,0,2.2c0,0.6-0.1,1.2-0.2,1.6
			c-0.1,0.5-0.3,0.9-0.6,1.2c-0.3,0.4-0.6,0.6-1.1,0.9c-0.4,0.2-0.9,0.3-1.5,0.3c-0.5,0-0.9-0.1-1.2-0.3c-0.5-0.2-0.7-0.6-0.7-1
			c0-0.2,0.1-0.4,0.2-0.6c0.1-0.1,0.3-0.2,0.6-0.2c0.2,0,0.4,0.1,0.6,0.2c0.2,0.1,0.2,0.3,0.2,0.6c0,0.2-0.1,0.4-0.2,0.5
			c-0.1,0.1-0.3,0.2-0.5,0.2c0.1,0.1,0.2,0.1,0.4,0.2c0.2,0,0.4,0.1,0.5,0.1c0.4,0,0.8-0.1,1.1-0.3c0.3-0.2,0.5-0.5,0.7-0.9
			c0.1-0.3,0.2-0.7,0.2-1.1c0-0.5,0.1-1.2,0.1-2.2V2.7c0-0.4,0-0.6-0.1-0.8c-0.1-0.2-0.2-0.3-0.3-0.3c-0.2-0.1-0.4-0.1-0.8-0.1V1.1
			c0.4,0,1,0,1.9,0c0.8,0,1.4,0,1.9,0v0.3C59.2,1.4,58.9,1.5,58.8,1.5"/>
		<path d="M66.1,10.8c-0.3,0.3-0.6,0.5-0.9,0.7c-0.4,0.2-0.8,0.3-1.3,0.3c-0.7,0-1.3-0.2-1.8-0.5c-0.5-0.3-0.9-0.8-1.2-1.3
			c-0.3-0.6-0.4-1.2-0.4-2c0-0.9,0.1-1.6,0.4-2.2c0.3-0.6,0.7-1.1,1.2-1.5c0.5-0.3,1.1-0.5,1.8-0.5c0.9,0,1.6,0.3,2,0.8
			c0.5,0.5,0.7,1.3,0.7,2.4H62c0,0.3-0.1,0.6-0.1,0.9c0,0.6,0.1,1.2,0.3,1.7c0.2,0.5,0.5,0.9,0.8,1.1c0.3,0.3,0.7,0.4,1.1,0.4
			c1,0,1.7-0.5,2.2-1.5l0.3,0.1C66.5,10.1,66.3,10.5,66.1,10.8 M65,5.4c-0.1-0.4-0.3-0.7-0.5-1C64.3,4.2,64.1,4,63.8,4
			c-0.3,0-0.6,0.1-0.8,0.3c-0.3,0.2-0.5,0.5-0.6,0.9c-0.2,0.4-0.3,0.9-0.3,1.5h3.2C65.2,6.2,65.1,5.8,65,5.4"/>
		<path d="M71.6,4.4c-0.2-0.2-0.6-0.3-1-0.3c-0.7,0-1.2,0.2-1.5,0.5c0.2,0,0.4,0.2,0.5,0.3c0.1,0.2,0.2,0.4,0.2,0.6
			c0,0.2-0.1,0.4-0.2,0.6c-0.2,0.1-0.4,0.2-0.6,0.2c-0.2,0-0.4-0.1-0.6-0.3c-0.1-0.2-0.2-0.4-0.2-0.7c0-0.4,0.2-0.7,0.7-1.1
			c0.2-0.2,0.5-0.3,0.9-0.4c0.4-0.1,0.7-0.2,1.2-0.2c0.4,0,0.8,0,1.1,0.1c0.3,0.1,0.5,0.2,0.7,0.4c0.2,0.2,0.4,0.5,0.5,0.8
			c0.1,0.3,0.1,0.7,0.1,1.3v4.1c0,0.2,0,0.4,0.1,0.5c0.1,0.1,0.2,0.2,0.3,0.2c0.1,0,0.2,0,0.3-0.1c0.1-0.1,0.2-0.1,0.3-0.2l0.2,0.3
			c-0.2,0.1-0.3,0.2-0.4,0.3c-0.1,0.1-0.2,0.1-0.4,0.2c-0.1,0-0.3,0.1-0.5,0.1c-0.5,0-0.8-0.1-1-0.4c-0.2-0.2-0.3-0.6-0.3-1
			c-0.3,0.5-0.6,0.8-1,1c-0.4,0.2-0.8,0.3-1.2,0.3c-0.3,0-0.7-0.1-0.9-0.2c-0.3-0.1-0.5-0.3-0.7-0.5c-0.2-0.2-0.3-0.6-0.3-0.9
			c0-0.4,0.1-0.7,0.3-1c0.2-0.3,0.4-0.5,0.8-0.7c0.3-0.2,0.8-0.4,1.3-0.7c0.1,0,0.3-0.1,0.7-0.3c0.4-0.2,0.6-0.3,0.8-0.5
			C71.9,6.8,72,6.6,72,6.5V5.5C72,5,71.9,4.6,71.6,4.4 M71.6,7.4c-0.2,0.1-0.5,0.3-1.1,0.5C70.3,8,70,8.2,69.8,8.3
			c-0.2,0.1-0.4,0.3-0.5,0.6c-0.1,0.2-0.2,0.5-0.2,0.9c0,0.4,0.1,0.8,0.3,1c0.2,0.2,0.5,0.3,0.9,0.3c0.7,0,1.2-0.4,1.7-1.1V7.1
			C71.9,7.2,71.8,7.3,71.6,7.4"/>
		<path d="M78.5,4.2c0.4-0.3,0.9-0.4,1.5-0.4c0.7,0,1.2,0.2,1.6,0.6c0.2,0.2,0.3,0.5,0.4,0.7c0.1,0.3,0.1,0.7,0.1,1.2v3.9
			c0,0.3,0,0.5,0.1,0.6c0.1,0.2,0.2,0.3,0.4,0.3c0.2,0.1,0.4,0.1,0.7,0.1v0.3c-0.9,0-1.5-0.1-1.8-0.1c-0.3,0-0.8,0-1.6,0.1v-0.3
			c0.2,0,0.4,0,0.6-0.1c0.1-0.1,0.2-0.2,0.3-0.3c0.1-0.2,0.1-0.4,0.1-0.6V5.9c0-0.4,0-0.7-0.1-0.9c-0.1-0.2-0.2-0.4-0.3-0.6
			c-0.2-0.1-0.4-0.2-0.8-0.2c-0.4,0-0.8,0.1-1.1,0.4c-0.3,0.2-0.6,0.6-0.7,1c-0.2,0.4-0.3,0.9-0.3,1.4v3.3c0,0.3,0,0.5,0.1,0.6
			c0.1,0.2,0.2,0.3,0.3,0.3c0.1,0.1,0.3,0.1,0.6,0.1v0.3c-0.8,0-1.4-0.1-1.7-0.1c-0.3,0-0.9,0-1.8,0.1v-0.3c0.3,0,0.5,0,0.7-0.1
			c0.2-0.1,0.3-0.2,0.4-0.3c0.1-0.2,0.1-0.4,0.1-0.6V5.6c0-0.5-0.1-0.8-0.2-1c-0.2-0.2-0.5-0.3-0.9-0.3V4c0.3,0,0.6,0,0.9,0
			c0.6,0,1.1-0.1,1.5-0.2v1.7C77.7,4.9,78.1,4.5,78.5,4.2"/>
		<path d="M92.5,11.6c-0.2,0.1-0.5,0.2-0.9,0.2c-0.4,0-0.7-0.1-1-0.4c-0.3-0.2-0.5-0.7-0.6-1.2l-0.3-1.5c-0.1-0.5-0.2-0.9-0.3-1.2
			c-0.1-0.3-0.3-0.5-0.5-0.7c-0.2-0.2-0.5-0.2-0.9-0.2h-1.4V10c0,0.4,0,0.6,0.1,0.8c0.1,0.2,0.2,0.3,0.3,0.3
			c0.2,0.1,0.4,0.1,0.8,0.1v0.3c-0.5,0-1.1,0-1.9,0c-0.8,0-1.5,0-1.9,0v-0.3c0.4,0,0.6-0.1,0.8-0.1c0.2-0.1,0.3-0.2,0.3-0.3
			c0.1-0.2,0.1-0.4,0.1-0.8V2.7c0-0.4,0-0.6-0.1-0.8c-0.1-0.2-0.2-0.3-0.3-0.3c-0.2-0.1-0.4-0.1-0.8-0.1V1.1c0.4,0,1,0,1.8,0
			c0.4,0,0.8,0,1.3,0c0.5,0,0.8,0,1,0c0.8,0,1.4,0.1,2,0.3c0.5,0.2,0.9,0.5,1.2,0.9c0.3,0.4,0.4,0.8,0.4,1.3c0,0.4-0.1,0.8-0.3,1.2
			c-0.2,0.4-0.5,0.7-0.9,1.1c-0.4,0.3-1,0.5-1.7,0.6l0.2,0c0.4,0.1,0.8,0.2,1.1,0.3c0.3,0.1,0.5,0.3,0.6,0.6c0.2,0.3,0.3,0.6,0.4,1
			l0.4,1.5c0.1,0.3,0.1,0.5,0.2,0.7c0.1,0.2,0.1,0.3,0.2,0.4c0.1,0.1,0.2,0.1,0.3,0.1c0.2,0,0.3,0,0.4-0.1c0.1-0.1,0.2-0.2,0.4-0.4
			l0.2,0.2C92.9,11.2,92.7,11.4,92.5,11.6 M89.1,6c0.4-0.2,0.6-0.5,0.8-0.8c0.1-0.4,0.2-0.8,0.2-1.3c0-0.8-0.2-1.4-0.6-1.8
			c-0.4-0.4-1-0.6-1.9-0.6c-0.3,0-0.5,0-0.7,0.1c-0.2,0.1-0.3,0.2-0.3,0.4c-0.1,0.2-0.1,0.4-0.1,0.8v3.6h1C88.3,6.3,88.8,6.2,89.1,6
			"/>
		<path d="M96,10.8c0.1,0.2,0.2,0.3,0.4,0.3c0.2,0.1,0.4,0.1,0.7,0.1v0.3c-0.9,0-1.5-0.1-1.8-0.1c-0.3,0-0.9,0-1.8,0.1v-0.3
			c0.3,0,0.5,0,0.7-0.1c0.2-0.1,0.3-0.2,0.4-0.3c0.1-0.2,0.1-0.4,0.1-0.6V5.6c0-0.5-0.1-0.8-0.2-1c-0.2-0.2-0.5-0.3-0.9-0.3V4
			c0.3,0,0.6,0,0.9,0c0.6,0,1.1-0.1,1.5-0.2v6.4C95.8,10.5,95.9,10.7,96,10.8 M95.5,0.4c0.1,0.1,0.3,0.2,0.3,0.3
			C96,0.9,96,1.1,96,1.2c0,0.2,0,0.3-0.1,0.5C95.8,1.8,95.7,2,95.5,2c-0.1,0.1-0.3,0.1-0.5,0.1c-0.2,0-0.3,0-0.5-0.1
			c-0.1-0.1-0.3-0.2-0.3-0.3c-0.1-0.1-0.1-0.3-0.1-0.5c0-0.2,0-0.3,0.1-0.5c0.1-0.1,0.2-0.3,0.3-0.3c0.1-0.1,0.3-0.1,0.5-0.1
			C95.2,0.3,95.4,0.3,95.5,0.4"/>
		<path d="M103.4,10.7c-0.2,0.3-0.5,0.6-0.9,0.8c-0.4,0.2-0.8,0.3-1.3,0.3c-0.6,0-1.2-0.2-1.7-0.5c-0.5-0.3-0.9-0.8-1.2-1.4
			C98.1,9.3,98,8.7,98,7.9c0-0.8,0.1-1.5,0.4-2.1c0.3-0.6,0.7-1.1,1.2-1.5c0.5-0.3,1.1-0.5,1.8-0.5c0.7,0,1.2,0.2,1.7,0.5
			c0.5,0.3,0.7,0.7,0.7,1.1c0,0.3-0.1,0.5-0.2,0.6c-0.1,0.1-0.3,0.2-0.6,0.2c-0.2,0-0.4-0.1-0.6-0.2c-0.2-0.1-0.2-0.3-0.2-0.5
			c0-0.2,0.1-0.4,0.2-0.5c0.1-0.1,0.3-0.2,0.4-0.3c-0.1-0.2-0.3-0.3-0.5-0.4c-0.3-0.1-0.5-0.2-0.8-0.2c-0.4,0-0.7,0.1-1,0.3
			c-0.3,0.2-0.6,0.6-0.8,1.2c-0.2,0.5-0.3,1.2-0.3,2.1c0,1.2,0.2,2.1,0.6,2.7c0.4,0.6,0.9,0.8,1.5,0.8c0.4,0,0.8-0.1,1.2-0.4
			c0.4-0.2,0.7-0.6,0.9-1.2l0.3,0.1C103.8,10.1,103.7,10.4,103.4,10.7"/>
		<path d="M108.2,4.2c0.4-0.3,0.9-0.4,1.5-0.4c0.7,0,1.2,0.2,1.6,0.6c0.2,0.2,0.3,0.5,0.4,0.7c0.1,0.3,0.1,0.7,0.1,1.2v3.9
			c0,0.3,0,0.5,0.1,0.6c0.1,0.2,0.2,0.3,0.4,0.3c0.2,0.1,0.4,0.1,0.7,0.1v0.3c-0.9,0-1.5-0.1-1.8-0.1c-0.3,0-0.8,0-1.7,0.1v-0.3
			c0.2,0,0.4,0,0.6-0.1c0.1-0.1,0.2-0.2,0.3-0.3c0.1-0.2,0.1-0.4,0.1-0.6V5.9c0-0.4,0-0.7-0.1-0.9c-0.1-0.2-0.2-0.4-0.3-0.6
			c-0.2-0.1-0.4-0.2-0.8-0.2c-0.4,0-0.8,0.1-1.1,0.3c-0.3,0.2-0.6,0.5-0.7,1c-0.2,0.4-0.3,0.9-0.3,1.4v3.3c0,0.3,0,0.5,0.1,0.6
			c0.1,0.2,0.2,0.3,0.3,0.3c0.1,0.1,0.3,0.1,0.6,0.1v0.3c-0.8,0-1.4-0.1-1.6-0.1c-0.3,0-0.9,0-1.8,0.1v-0.3c0.3,0,0.5,0,0.7-0.1
			c0.2-0.1,0.3-0.2,0.4-0.3c0.1-0.2,0.1-0.4,0.1-0.6V1.8c0-0.5-0.1-0.8-0.2-1c-0.2-0.2-0.5-0.3-0.9-0.3V0.2c0.3,0,0.6,0,0.9,0
			c0.6,0,1.1-0.1,1.5-0.2v5.5C107.4,4.9,107.8,4.5,108.2,4.2"/>
		<path d="M117.5,4.4c-0.2-0.2-0.6-0.3-1-0.3c-0.7,0-1.2,0.2-1.5,0.5c0.2,0,0.4,0.2,0.5,0.3c0.1,0.2,0.2,0.4,0.2,0.6
			c0,0.2-0.1,0.4-0.2,0.6c-0.2,0.1-0.4,0.2-0.6,0.2c-0.2,0-0.4-0.1-0.6-0.3c-0.1-0.2-0.2-0.4-0.2-0.7c0-0.4,0.2-0.7,0.7-1.1
			c0.2-0.2,0.5-0.3,0.9-0.4c0.4-0.1,0.7-0.2,1.2-0.2c0.4,0,0.8,0,1.1,0.1c0.3,0.1,0.5,0.2,0.7,0.4c0.2,0.2,0.4,0.5,0.5,0.8
			c0.1,0.3,0.1,0.7,0.1,1.3v4.1c0,0.2,0,0.4,0.1,0.5c0.1,0.1,0.2,0.2,0.3,0.2c0.1,0,0.2,0,0.3-0.1c0.1-0.1,0.2-0.1,0.3-0.2l0.2,0.3
			c-0.2,0.1-0.3,0.2-0.4,0.3c-0.1,0.1-0.2,0.1-0.4,0.2c-0.1,0-0.3,0.1-0.5,0.1c-0.5,0-0.8-0.1-1-0.4c-0.2-0.2-0.3-0.6-0.3-1
			c-0.3,0.5-0.6,0.8-1,1c-0.4,0.2-0.8,0.3-1.2,0.3c-0.3,0-0.7-0.1-0.9-0.2c-0.3-0.1-0.5-0.3-0.7-0.5c-0.2-0.2-0.3-0.6-0.3-0.9
			c0-0.4,0.1-0.7,0.3-1c0.2-0.3,0.4-0.5,0.8-0.7c0.3-0.2,0.8-0.4,1.3-0.7c0.1,0,0.3-0.1,0.7-0.3c0.4-0.2,0.6-0.3,0.8-0.5
			c0.2-0.2,0.2-0.3,0.2-0.5V5.5C117.8,5,117.7,4.6,117.5,4.4 M117.5,7.4c-0.2,0.1-0.5,0.3-1.1,0.5c-0.3,0.1-0.5,0.3-0.7,0.4
			c-0.2,0.1-0.4,0.3-0.5,0.6c-0.1,0.2-0.2,0.5-0.2,0.9c0,0.4,0.1,0.8,0.3,1c0.2,0.2,0.5,0.3,0.9,0.3c0.7,0,1.2-0.4,1.7-1.1V7.1
			C117.8,7.2,117.7,7.3,117.5,7.4"/>
		<path d="M123.8,4.8c0.2-0.3,0.5-0.5,0.7-0.7c0.3-0.2,0.6-0.3,0.9-0.3c0.3,0,0.5,0.1,0.7,0.2c0.2,0.1,0.4,0.2,0.5,0.4
			c0.1,0.2,0.2,0.4,0.2,0.6c0,0.3-0.1,0.5-0.2,0.7c-0.2,0.2-0.4,0.3-0.6,0.3c-0.2,0-0.4-0.1-0.6-0.2s-0.2-0.3-0.2-0.6
			c0-0.3,0.2-0.6,0.5-0.8c-0.1-0.1-0.2-0.1-0.3-0.1c-0.4,0-0.7,0.1-1.1,0.4c-0.3,0.3-0.6,0.7-0.7,1.1c-0.2,0.4-0.3,0.8-0.3,1.2V10
			c0,0.5,0.1,0.8,0.4,0.9c0.3,0.2,0.7,0.3,1.2,0.3v0.3c-1.2,0-2-0.1-2.3-0.1c-0.3,0-0.8,0-1.7,0.1v-0.3c0.3,0,0.5,0,0.7-0.1
			c0.2-0.1,0.3-0.2,0.4-0.3c0.1-0.2,0.1-0.4,0.1-0.6V5.6c0-0.5-0.1-0.8-0.2-1c-0.2-0.2-0.5-0.3-0.9-0.3V4c0.3,0,0.6,0,0.9,0
			c0.6,0,1.1-0.1,1.5-0.2v1.8C123.5,5.3,123.6,5,123.8,4.8"/>
		<path d="M134.1,11c0.2,0.2,0.5,0.3,0.9,0.3v0.3c-0.3,0-0.6,0-0.9,0c-0.6,0-1.1,0.1-1.5,0.2v-1.3c-0.2,0.4-0.5,0.8-0.8,1
			c-0.4,0.2-0.8,0.3-1.3,0.3c-0.6,0-1.2-0.1-1.6-0.4c-0.5-0.3-0.8-0.7-1-1.3c-0.2-0.6-0.4-1.3-0.4-2.2c0-0.9,0.1-1.6,0.4-2.2
			c0.3-0.6,0.7-1.1,1.2-1.4c0.5-0.3,1.1-0.5,1.7-0.5c0.4,0,0.7,0.1,1,0.2c0.3,0.1,0.6,0.4,0.7,0.7V1.8c0-0.5-0.1-0.8-0.2-1
			c-0.2-0.2-0.5-0.3-0.9-0.3V0.2c0.3,0,0.6,0,0.9,0c0.6,0,1.1-0.1,1.5-0.2v10C133.9,10.4,134,10.7,134.1,11 M130.9,4.1
			c-0.4,0-0.8,0.1-1.1,0.4c-0.3,0.3-0.5,0.7-0.7,1.2c-0.2,0.5-0.3,1.2-0.3,2c0,1.2,0.2,2.1,0.5,2.7c0.3,0.6,0.8,0.9,1.5,0.9
			c0.3,0,0.5-0.1,0.7-0.2c0.2-0.1,0.4-0.3,0.6-0.6c0.2-0.3,0.3-0.6,0.4-0.9V5.2C132.3,4.5,131.7,4.1,130.9,4.1"/>
	</g>
</g>
</svg>
